<svg width="1300" height="479" viewBox="0 0 1300 479" fill="none" class="equiposvg" xmlns="http://www.w3.org/2000/svg">
<rect x="0.5" y="1.34692" width="1299" height="476.306" stroke="white"/>
<line x1="58.0645" y1="0.846924" x2="58.0645" y2="478.153" stroke="white"/>
<line x1="120.426" y1="0.846924" x2="120.426" y2="478.153" stroke="white"/>
<line x1="182.788" y1="0.846924" x2="182.788" y2="478.153" stroke="white"/>
<line x1="245.149" y1="0.846924" x2="245.149" y2="478.153" stroke="white"/>
<line x1="307.511" y1="0.846924" x2="307.511" y2="478.153" stroke="white"/>
<line x1="369.873" y1="0.846924" x2="369.873" y2="478.153" stroke="white"/>
<line x1="432.234" y1="0.846924" x2="432.234" y2="478.153" stroke="white"/>
<line x1="494.596" y1="0.846924" x2="494.596" y2="478.153" stroke="white"/>
<line x1="556.958" y1="0.846924" x2="556.958" y2="478.153" stroke="white"/>
<line x1="619.319" y1="0.846924" x2="619.319" y2="478.153" stroke="white"/>
<line x1="681.681" y1="0.846924" x2="681.681" y2="478.153" stroke="white"/>
<line x1="744.042" y1="0.846924" x2="744.042" y2="478.153" stroke="white"/>
<line x1="806.404" y1="0.846924" x2="806.404" y2="478.153" stroke="white"/>
<line x1="868.766" y1="0.846924" x2="868.766" y2="478.153" stroke="white"/>
<line x1="931.127" y1="0.846924" x2="931.127" y2="478.153" stroke="white"/>
<line x1="993.489" y1="0.846924" x2="993.489" y2="478.153" stroke="white"/>
<line x1="1055.85" y1="0.846924" x2="1055.85" y2="478.153" stroke="white"/>
<line x1="1118.21" y1="0.846924" x2="1118.21" y2="478.153" stroke="white"/>
<line x1="1180.57" y1="0.846924" x2="1180.57" y2="478.153" stroke="white"/>
<line x1="1242.94" y1="0.846924" x2="1242.94" y2="478.153" stroke="white"/>
<line x1="-4.37114e-08" y1="60.3101" x2="1300" y2="60.3099" stroke="white"/>
<line x1="-4.37114e-08" y1="120.273" x2="1300" y2="120.273" stroke="white"/>
<line x1="-4.37114e-08" y1="180.236" x2="1300" y2="180.236" stroke="white"/>
<line x1="-4.37114e-08" y1="240.199" x2="1300" y2="240.199" stroke="white"/>
<line x1="-4.37114e-08" y1="300.162" x2="1300" y2="300.162" stroke="white"/>
<line x1="-4.37114e-08" y1="360.126" x2="1300" y2="360.125" stroke="white"/>
<line x1="-4.37114e-08" y1="420.089" x2="1300" y2="420.089" stroke="white"/>
</svg>
