<svg width="396" height="34" viewBox="0 0 396 34" fill="none" xmlns="http://www.w3.org/2000/svg">
<path d="M15.24 13.04L14.44 13.64L14.5257 13.7543L14.64 13.84L15.24 13.04ZM15.24 16.76L14.5329 16.0529L14.5329 16.0529L15.24 16.76ZM19.72 25.16L18.92 25.76L19.0057 25.8743L19.12 25.96L19.72 25.16ZM19.72 28.88L20.4271 29.5871V29.5871L19.72 28.88ZM1.04 28.88L0.24 29.48L0.325714 29.5943L0.44 29.68L1.04 28.88ZM1.04 1.16L0.332893 0.452892L0.332891 0.452894L1.04 1.16ZM19.72 1.16L18.92 1.76L19.0057 1.87428L19.12 1.96L19.72 1.16ZM18.88 4.52C18.88 4.44896 18.8951 4.37372 18.9262 4.30386C18.9562 4.23633 18.9922 4.19359 19.0129 4.17289L20.4271 5.5871C20.6945 5.31975 20.88 4.95425 20.88 4.52H18.88ZM19.0129 4.17289C19.0746 4.11123 19.1495 4.06344 19.2289 4.03367C19.3052 4.00506 19.3668 4 19.4 4V6C19.7476 6 20.1264 5.88784 20.4271 5.5871L19.0129 4.17289ZM19.4 4H5.76V6H19.4V4ZM5.76 4C5.53919 4 5.18991 4.05588 4.90289 4.34289C4.61588 4.62991 4.56 4.97919 4.56 5.2H6.56C6.56 5.28748 6.53745 5.53676 6.31711 5.75711C6.09676 5.97745 5.84748 6 5.76 6V4ZM4.56 5.2V12.68H6.56V5.2H4.56ZM4.56 12.68C4.56 12.9008 4.61588 13.2501 4.90289 13.5371C5.18991 13.8241 5.53919 13.88 5.76 13.88V11.88C5.84748 11.88 6.09676 11.9025 6.31711 12.1229C6.53745 12.3432 6.56 12.5925 6.56 12.68H4.56ZM5.76 13.88H14.92V11.88H5.76V13.88ZM14.92 13.88C14.8499 13.88 14.754 13.865 14.6528 13.8144C14.5516 13.7638 14.482 13.696 14.44 13.64L16.04 12.44C15.7711 12.0815 15.3681 11.88 14.92 11.88V13.88ZM14.64 13.84C14.584 13.798 14.5162 13.7284 14.4656 13.6272C14.415 13.526 14.4 13.4301 14.4 13.36H16.4C16.4 12.9119 16.1985 12.5089 15.84 12.24L14.64 13.84ZM14.4 13.36V16.4H16.4V13.36H14.4ZM14.4 16.4C14.4 16.329 14.4151 16.2537 14.4462 16.1839C14.4762 16.1163 14.5122 16.0736 14.5329 16.0529L15.9471 17.4671C16.2145 17.1998 16.4 16.8342 16.4 16.4H14.4ZM14.5329 16.0529C14.5946 15.9912 14.6695 15.9434 14.7489 15.9137C14.8252 15.8851 14.8868 15.88 14.92 15.88V17.88C15.2676 17.88 15.6464 17.7678 15.9471 17.4671L14.5329 16.0529ZM14.92 15.88H5.76V17.88H14.92V15.88ZM5.76 15.88C5.53919 15.88 5.18991 15.9359 4.90289 16.2229C4.61588 16.5099 4.56 16.8592 4.56 17.08H6.56C6.56 17.1675 6.53745 17.4168 6.31711 17.6371C6.09676 17.8575 5.84748 17.88 5.76 17.88V15.88ZM4.56 17.08V24.8H6.56V17.08H4.56ZM4.56 24.8C4.56 25.0208 4.61588 25.3701 4.90289 25.6571C5.18991 25.9441 5.53919 26 5.76 26V24C5.84748 24 6.09676 24.0225 6.31711 24.2429C6.53745 24.4632 6.56 24.7125 6.56 24.8H4.56ZM5.76 26H19.4V24H5.76V26ZM19.4 26C19.3299 26 19.234 25.985 19.1328 25.9344C19.0316 25.8838 18.962 25.816 18.92 25.76L20.52 24.56C20.2511 24.2015 19.8481 24 19.4 24V26ZM19.12 25.96C19.064 25.918 18.9962 25.8484 18.9456 25.7472C18.895 25.646 18.88 25.5501 18.88 25.48H20.88C20.88 25.0319 20.6785 24.6289 20.32 24.36L19.12 25.96ZM18.88 25.48V28.52H20.88V25.48H18.88ZM18.88 28.52C18.88 28.449 18.8951 28.3737 18.9262 28.3039C18.9562 28.2363 18.9922 28.1936 19.0129 28.1729L20.4271 29.5871C20.6945 29.3198 20.88 28.9542 20.88 28.52H18.88ZM19.0129 28.1729C19.0746 28.1112 19.1495 28.0634 19.2289 28.0337C19.3052 28.0051 19.3668 28 19.4 28V30C19.7476 30 20.1264 29.8878 20.4271 29.5871L19.0129 28.1729ZM19.4 28H1.4V30H19.4V28ZM1.4 28C1.43497 28 1.47886 28.0055 1.52623 28.0213C1.5736 28.0371 1.61203 28.059 1.64 28.08L0.44 29.68C0.719763 29.8898 1.0503 30 1.4 30V28ZM1.84 28.28C1.86098 28.308 1.88289 28.3464 1.89868 28.3938C1.91447 28.4411 1.92 28.485 1.92 28.52H-0.0799997C-0.0799997 28.8697 0.0301781 29.2002 0.24 29.48L1.84 28.28ZM1.92 28.52V1.48H-0.0799997V28.52H1.92ZM1.92 1.48C1.92 1.5132 1.91494 1.57483 1.88633 1.65112C1.85657 1.73049 1.80877 1.80544 1.74711 1.8671L0.332891 0.452894C0.0321581 0.753629 -0.0799997 1.13241 -0.0799997 1.48H1.92ZM1.74711 1.8671C1.7264 1.88781 1.68367 1.92379 1.61614 1.95381C1.54628 1.98486 1.47104 2 1.4 2V-1.90735e-06C0.965751 -1.90735e-06 0.600247 0.185537 0.332893 0.452892L1.74711 1.8671ZM1.4 2H19.4V-1.90735e-06H1.4V2ZM19.4 2C19.3299 2 19.234 1.98502 19.1328 1.93443C19.0316 1.88383 18.962 1.81604 18.92 1.76L20.52 0.559997C20.2511 0.201527 19.8481 -1.90735e-06 19.4 -1.90735e-06V2ZM19.12 1.96C19.064 1.91796 18.9962 1.8484 18.9456 1.74721C18.895 1.64602 18.88 1.55005 18.88 1.48H20.88C20.88 1.03191 20.6785 0.628854 20.32 0.36L19.12 1.96ZM18.88 1.48V4.52H20.88V1.48H18.88ZM40.5519 1.88L41.0241 0.998519L40.5519 1.88ZM44.0319 5.28L44.903 4.78898L44.0319 5.28ZM43.2719 25.96L42.4935 25.3322L42.4923 25.3337L43.2719 25.96ZM37.9119 29.08L37.7158 28.0994L37.6924 28.1041L37.6693 28.1099L37.9119 29.08ZM37.5919 33L36.9919 32.2L36.8776 32.2857L36.7919 32.4L37.5919 33ZM33.2319 33L32.5248 33.7071V33.7071L33.2319 33ZM32.9119 29.08L33.2833 28.1515L33.1991 28.1179L33.1102 28.0999L32.9119 29.08ZM27.5519 25.96L28.3253 25.3261L27.5519 25.96ZM26.7919 5.28L25.9207 4.78898V4.78899L26.7919 5.28ZM30.2319 1.88L29.7596 0.998493L29.753 1.0021L30.2319 1.88ZM39.1919 6.2L38.4659 6.8878L38.4752 6.89735L39.1919 6.2ZM31.6319 6.2L32.3487 6.89741L32.3578 6.88774L31.6319 6.2ZM31.6319 23.84L30.9059 24.5278L30.9151 24.5374L31.6319 23.84ZM39.1919 23.84L39.9087 24.5374L39.9178 24.5277L39.1919 23.84ZM35.3919 1.68C37.1985 1.68 38.7519 2.05019 40.0797 2.76148L41.0241 0.998519C39.3652 0.109804 37.4785 -0.32 35.3919 -0.32V1.68ZM40.0797 2.76148C41.4068 3.47242 42.4279 4.47082 43.1607 5.77101L44.903 4.78898C43.9825 3.15584 42.6837 1.88757 41.0241 0.998519L40.0797 2.76148ZM43.1607 5.77101C43.8917 7.06782 44.2719 8.58752 44.2719 10.36H46.2719C46.2719 8.29247 45.8254 6.42551 44.903 4.78898L43.1607 5.77101ZM44.2719 10.36V19.96H46.2719V10.36H44.2719ZM44.2719 19.96C44.2719 22.1037 43.6682 23.8756 42.4935 25.3322L44.0503 26.5878C45.5422 24.7377 46.2719 22.5096 46.2719 19.96H44.2719ZM42.4923 25.3337C41.3486 26.7575 39.7789 27.6868 37.7158 28.0994L38.108 30.0606C40.5782 29.5665 42.5818 28.4158 44.0515 26.5863L42.4923 25.3337ZM37.6693 28.1099C37.4118 28.1743 37.1443 28.3286 36.9598 28.6053C36.7888 28.8618 36.7519 29.1297 36.7519 29.32H38.7519C38.7519 29.377 38.7416 29.5382 38.6239 29.7147C38.4928 29.9114 38.3053 30.0124 38.1544 30.0501L37.6693 28.1099ZM36.7519 29.32V32.68H38.7519V29.32H36.7519ZM36.7519 32.68C36.7519 32.6099 36.7669 32.514 36.8174 32.4128C36.868 32.3116 36.9358 32.242 36.9919 32.2L38.1919 33.8C38.5503 33.5311 38.7519 33.1281 38.7519 32.68H36.7519ZM36.7919 32.4C36.8339 32.344 36.9035 32.2762 37.0047 32.2256C37.1059 32.175 37.2018 32.16 37.2719 32.16V34.16C37.72 34.16 38.123 33.9585 38.3919 33.6L36.7919 32.4ZM37.2719 32.16H33.5919V34.16H37.2719V32.16ZM33.5919 32.16C33.6629 32.16 33.7382 32.1751 33.808 32.2062C33.8755 32.2362 33.9183 32.2722 33.939 32.2929L32.5248 33.7071C32.7921 33.9745 33.1576 34.16 33.5919 34.16V32.16ZM33.939 32.2929C34.0006 32.3546 34.0484 32.4295 34.0782 32.5089C34.1068 32.5852 34.1119 32.6468 34.1119 32.68H32.1119C32.1119 33.0276 32.224 33.4064 32.5248 33.7071L33.939 32.2929ZM34.1119 32.68V29.32H32.1119V32.68H34.1119ZM34.1119 29.32C34.1119 29.0389 34.0171 28.7642 33.8301 28.5398C33.6578 28.3331 33.4486 28.2176 33.2833 28.1515L32.5405 30.0085C32.5085 29.9957 32.3992 29.9469 32.2937 29.8202C32.1733 29.6758 32.1119 29.4944 32.1119 29.32H34.1119ZM33.1102 28.0999C31.0751 27.688 29.4995 26.7587 28.3253 25.3261L26.7785 26.5939C28.2709 28.4146 30.2686 29.5653 32.7135 30.0601L33.1102 28.0999ZM28.3253 25.3261C27.1572 23.9011 26.5519 22.1336 26.5519 19.96H24.5519C24.5519 22.533 25.2799 24.7656 26.7785 26.5939L28.3253 25.3261ZM26.5519 19.96V10.36H24.5519V19.96H26.5519ZM26.5519 10.36C26.5519 8.58752 26.9321 7.06782 27.663 5.77101L25.9207 4.78899C24.9983 6.42551 24.5519 8.29247 24.5519 10.36H26.5519ZM27.663 5.77101C28.3985 4.46616 29.4098 3.46748 30.7107 2.75789L29.753 1.0021C28.1206 1.89252 26.8386 3.1605 25.9207 4.78898L27.663 5.77101ZM30.7041 2.76148C32.0318 2.05019 33.5852 1.68 35.3919 1.68V-0.32C33.3052 -0.32 31.4186 0.109805 29.7597 0.998519L30.7041 2.76148ZM41.6319 10.12C41.6319 8.28352 41.0828 6.70941 39.9086 5.50264L38.4752 6.89735C39.221 7.66392 39.6319 8.70314 39.6319 10.12H41.6319ZM39.9178 5.51225C38.7441 4.27331 37.2014 3.68 35.3919 3.68V5.68C36.729 5.68 37.7197 6.10002 38.4659 6.88774L39.9178 5.51225ZM35.3919 3.68C33.6034 3.68 32.0762 4.27695 30.9059 5.51225L32.3578 6.88774C33.1075 6.09638 34.087 5.68 35.3919 5.68V3.68ZM30.9151 5.50264C29.741 6.70941 29.1919 8.28352 29.1919 10.12H31.1919C31.1919 8.70314 31.6028 7.66392 32.3486 6.89735L30.9151 5.50264ZM29.1919 10.12V19.88H31.1919V10.12H29.1919ZM29.1919 19.88C29.1919 21.7172 29.7411 23.2982 30.9059 24.5277L32.3578 23.1523C31.6027 22.3551 31.1919 21.2961 31.1919 19.88H29.1919ZM30.9151 24.5374C32.0875 25.7422 33.6118 26.32 35.3919 26.32V24.32C34.0786 24.32 33.0963 23.9111 32.3486 23.1426L30.9151 24.5374ZM35.3919 26.32C37.1931 26.32 38.7329 25.7457 39.9086 24.5374L38.4752 23.1426C37.7309 23.9076 36.7373 24.32 35.3919 24.32V26.32ZM39.9178 24.5277C41.0827 23.2982 41.6319 21.7172 41.6319 19.88H39.6319C39.6319 21.2961 39.2211 22.3551 38.4659 23.1523L39.9178 24.5277ZM41.6319 19.88V10.12H39.6319V19.88H41.6319ZM56.6284 28.16L56.175 29.0513L56.6284 28.16ZM53.0684 24.88L52.2012 25.3779L52.2067 25.3874L52.2124 25.3969L53.0684 24.88ZM51.9484 1.16L51.2413 0.452892V0.452894L51.9484 1.16ZM56.3084 1.16L55.5084 1.76L55.5942 1.87428L55.7084 1.96L56.3084 1.16ZM57.9484 23.84L58.6555 23.1329L57.9484 23.84ZM67.3884 1.16L68.0955 1.86711L68.0956 1.8671L67.3884 1.16ZM71.7484 1.16L70.9484 1.75999L71.0341 1.87428L71.1484 1.96L71.7484 1.16ZM70.6684 24.88L71.5317 25.3849L71.5357 25.3779L70.6684 24.88ZM67.1484 28.16L66.695 27.2687L67.1484 28.16ZM61.8684 28.32C60.0279 28.32 58.4409 27.9601 57.0819 27.2687L56.175 29.0513C57.856 29.9065 59.7623 30.32 61.8684 30.32V28.32ZM57.0819 27.2687C55.7227 26.5772 54.678 25.611 53.9245 24.3631L52.2124 25.3969C53.1656 26.9756 54.4942 28.1961 56.175 29.0513L57.0819 27.2687ZM53.9357 24.3821C53.2064 23.1118 52.8284 21.6341 52.8284 19.92H50.8284C50.8284 21.9392 51.2771 23.7682 52.2012 25.3779L53.9357 24.3821ZM52.8284 19.92V1.48H50.8284V19.92H52.8284ZM52.8284 1.48C52.8284 1.5132 52.8234 1.57483 52.7948 1.65112C52.765 1.73049 52.7172 1.80544 52.6555 1.8671L51.2413 0.452894C50.9406 0.753629 50.8284 1.13241 50.8284 1.48H52.8284ZM52.6555 1.8671C52.6348 1.88781 52.5921 1.92379 52.5246 1.95381C52.4547 1.98486 52.3795 2 52.3084 2V-1.90735e-06C51.8742 -1.90735e-06 51.5087 0.185536 51.2413 0.452892L52.6555 1.8671ZM52.3084 2H55.9884V-1.90735e-06H52.3084V2ZM55.9884 2C55.9184 2 55.8224 1.98502 55.7212 1.93443C55.62 1.88383 55.5505 1.81604 55.5084 1.76L57.1084 0.56C56.8396 0.201526 56.4365 -1.90735e-06 55.9884 -1.90735e-06V2ZM55.7084 1.96C55.6524 1.91796 55.5846 1.8484 55.534 1.74721C55.4834 1.64602 55.4684 1.55005 55.4684 1.48H57.4684C57.4684 1.03191 57.2669 0.628854 56.9084 0.36L55.7084 1.96ZM55.4684 1.48V20H57.4684V1.48H55.4684ZM55.4684 20C55.4684 21.8016 56.0426 23.3483 57.2413 24.5471L58.6555 23.1329C57.881 22.3583 57.4684 21.345 57.4684 20H55.4684ZM57.2413 24.5471C58.4466 25.7524 60.024 26.32 61.8684 26.32V24.32C60.4595 24.32 59.4236 23.9009 58.6555 23.1329L57.2413 24.5471ZM61.8684 26.32C63.7128 26.32 65.2902 25.7524 66.4955 24.5471L65.0813 23.1329C64.3133 23.9009 63.2774 24.32 61.8684 24.32V26.32ZM66.4955 24.5471C67.6943 23.3483 68.2684 21.8016 68.2684 20H66.2684C66.2684 21.345 65.8559 22.3583 65.0813 23.1329L66.4955 24.5471ZM68.2684 20V1.48H66.2684V20H68.2684ZM68.2684 1.48C68.2684 1.5132 68.2634 1.57483 68.2348 1.65112C68.205 1.7305 68.1572 1.80545 68.0955 1.86711L66.6813 0.452891C66.3806 0.753626 66.2684 1.13241 66.2684 1.48H68.2684ZM68.0956 1.8671C68.0748 1.88781 68.0321 1.92379 67.9646 1.95381C67.8947 1.98486 67.8195 2 67.7484 2V-1.90735e-06C67.3142 -1.90735e-06 66.9487 0.185536 66.6813 0.452894L68.0956 1.8671ZM67.7484 2H71.4284V-1.90735e-06H67.7484V2ZM71.4284 2C71.3584 2 71.2624 1.98502 71.1612 1.93442C71.06 1.88383 70.9905 1.81604 70.9484 1.75999L72.5484 0.560004C72.2796 0.201528 71.8765 -1.90735e-06 71.4284 -1.90735e-06V2ZM71.1484 1.96C71.0924 1.91796 71.0246 1.8484 70.974 1.74721C70.9234 1.64602 70.9084 1.55005 70.9084 1.48H72.9084C72.9084 1.03191 72.7069 0.628854 72.3484 0.36L71.1484 1.96ZM70.9084 1.48V19.92H72.9084V1.48H70.9084ZM70.9084 19.92C70.9084 21.6341 70.5305 23.1118 69.8012 24.3821L71.5357 25.3779C72.4597 23.7682 72.9084 21.9392 72.9084 19.92H70.9084ZM69.8053 24.3751C69.0795 25.616 68.0517 26.5785 66.695 27.2687L67.6019 29.0513C69.2852 28.1949 70.6041 26.9707 71.5316 25.3849L69.8053 24.3751ZM66.695 27.2687C65.3378 27.9592 63.738 28.32 61.8684 28.32V30.32C63.9989 30.32 65.9191 29.9075 67.6019 29.0513L66.695 27.2687ZM79.6181 28.88L78.8181 29.48L78.9038 29.5943L79.0181 29.68L79.6181 28.88ZM79.6181 1.16L78.911 0.452892V0.452894L79.6181 1.16ZM83.9781 1.16L83.1781 1.76L83.2638 1.87428L83.3781 1.96L83.9781 1.16ZM83.9781 28.88L83.271 28.1729V28.1729L83.9781 28.88ZM79.9781 28C80.0131 28 80.057 28.0055 80.1044 28.0213C80.1517 28.0371 80.1902 28.059 80.2181 28.08L79.0181 29.68C79.2979 29.8898 79.6284 30 79.9781 30V28ZM80.4181 28.28C80.4391 28.308 80.461 28.3464 80.4768 28.3938C80.4926 28.4411 80.4981 28.485 80.4981 28.52H78.4981C78.4981 28.8697 78.6083 29.2002 78.8181 29.48L80.4181 28.28ZM80.4981 28.52V1.48H78.4981V28.52H80.4981ZM80.4981 1.48C80.4981 1.5132 80.4931 1.57483 80.4645 1.65112C80.4347 1.73049 80.3869 1.80544 80.3252 1.8671L78.911 0.452894C78.6103 0.753629 78.4981 1.13241 78.4981 1.48H80.4981ZM80.3252 1.8671C80.3045 1.88781 80.2618 1.92379 80.1943 1.95381C80.1244 1.98486 80.0492 2 79.9781 2V-1.90735e-06C79.5439 -1.90735e-06 79.1784 0.185537 78.911 0.452892L80.3252 1.8671ZM79.9781 2H83.6581V-1.90735e-06H79.9781V2ZM83.6581 2C83.5881 2 83.4921 1.98502 83.3909 1.93443C83.2897 1.88383 83.2202 1.81604 83.1781 1.76L84.7781 0.56C84.5093 0.201526 84.1062 -1.90735e-06 83.6581 -1.90735e-06V2ZM83.3781 1.96C83.3221 1.91796 83.2543 1.8484 83.2037 1.74721C83.1531 1.64602 83.1381 1.55005 83.1381 1.48H85.1381C85.1381 1.03191 84.9366 0.628854 84.5781 0.36L83.3781 1.96ZM83.1381 1.48V28.52H85.1381V1.48H83.1381ZM83.1381 28.52C83.1381 28.449 83.1533 28.3737 83.1843 28.3039C83.2143 28.2363 83.2503 28.1936 83.271 28.1729L84.6852 29.5871C84.9526 29.3198 85.1381 28.9542 85.1381 28.52H83.1381ZM83.271 28.1729C83.3327 28.1112 83.4076 28.0634 83.487 28.0337C83.5633 28.0051 83.6249 28 83.6581 28V30C84.0057 30 84.3845 29.8878 84.6852 29.5871L83.271 28.1729ZM83.6581 28H79.9781V30H83.6581V28ZM107.647 2L107.171 2.87929L107.647 2ZM110.607 4.96L109.728 5.43628L109.734 5.44728L109.74 5.45812L110.607 4.96ZM110.607 13.64L111.474 14.1381V14.1381L110.607 13.64ZM107.527 16.56L107.981 17.4508L107.988 17.4472L107.527 16.56ZM96.2069 28.88L95.4998 28.1729V28.1729L96.2069 28.88ZM91.8469 28.88L91.0469 29.48L91.1326 29.5943L91.2469 29.68L91.8469 28.88ZM91.8469 1.12L91.1398 0.412892L91.1398 0.412895L91.8469 1.12ZM105.807 12.6L106.502 13.3186V13.3186L105.807 12.6ZM105.807 6.2L106.514 5.49289V5.49289L105.807 6.2ZM103.207 1.96C104.746 1.96 106.058 2.27663 107.171 2.87929L108.123 1.12071C106.676 0.336705 105.027 -0.0400009 103.207 -0.0400009V1.96ZM107.171 2.87929C108.28 3.48022 109.127 4.32687 109.728 5.43628L111.486 4.48372C110.7 3.03313 109.574 1.90644 108.123 1.12071L107.171 2.87929ZM109.74 5.45812C110.361 6.53919 110.687 7.81594 110.687 9.32H112.687C112.687 7.51739 112.293 5.88748 111.474 4.46187L109.74 5.45812ZM110.687 9.32C110.687 10.7942 110.362 12.0584 109.74 13.1419L111.474 14.1381C112.292 12.7149 112.687 11.0991 112.687 9.32H110.687ZM109.74 13.1419C109.119 14.2226 108.236 15.064 107.066 15.6728L107.988 17.4472C109.484 16.6693 110.655 15.5641 111.474 14.1381L109.74 13.1419ZM107.072 15.6692C105.93 16.2522 104.571 16.56 102.967 16.56V18.56C104.83 18.56 106.511 18.2012 107.981 17.4508L107.072 15.6692ZM102.967 16.56H96.5669V18.56H102.967V16.56ZM96.5669 16.56C96.3461 16.56 95.9968 16.6159 95.7098 16.9029C95.4228 17.1899 95.3669 17.5392 95.3669 17.76H97.3669C97.3669 17.8475 97.3443 18.0968 97.124 18.3171C96.9036 18.5375 96.6544 18.56 96.5669 18.56V16.56ZM95.3669 17.76V28.52H97.3669V17.76H95.3669ZM95.3669 28.52C95.3669 28.449 95.382 28.3737 95.4131 28.3039C95.4431 28.2363 95.4791 28.1936 95.4998 28.1729L96.914 29.5871C97.1813 29.3198 97.3669 28.9542 97.3669 28.52H95.3669ZM95.4998 28.1729C95.5614 28.1112 95.6364 28.0634 95.7158 28.0337C95.7921 28.0051 95.8537 28 95.8869 28V30C96.2345 30 96.6133 29.8878 96.914 29.5871L95.4998 28.1729ZM95.8869 28H92.2069V30H95.8869V28ZM92.2069 28C92.2418 28 92.2857 28.0055 92.3331 28.0213C92.3805 28.0371 92.4189 28.059 92.4469 28.08L91.2469 29.68C91.5266 29.8898 91.8572 30 92.2069 30V28ZM92.6469 28.28C92.6679 28.308 92.6898 28.3464 92.7056 28.3938C92.7214 28.4411 92.7269 28.485 92.7269 28.52H90.7269C90.7269 28.8697 90.8371 29.2002 91.0469 29.48L92.6469 28.28ZM92.7269 28.52V1.44H90.7269V28.52H92.7269ZM92.7269 1.44C92.7269 1.4732 92.7218 1.53483 92.6932 1.61112C92.6634 1.69049 92.6156 1.76544 92.554 1.8271L91.1398 0.412895C90.839 0.71363 90.7269 1.09241 90.7269 1.44H92.7269ZM92.554 1.82711C92.5333 1.84781 92.4905 1.8838 92.423 1.91381C92.3531 1.94486 92.2779 1.96 92.2069 1.96V-0.0400009C91.7726 -0.0400009 91.4071 0.145537 91.1398 0.412892L92.554 1.82711ZM92.2069 1.96H103.207V-0.0400009H92.2069V1.96ZM102.527 14.8C104.096 14.8 105.456 14.3315 106.502 13.3186L105.111 11.8814C104.505 12.4685 103.678 12.8 102.527 12.8V14.8ZM106.502 13.3186C107.551 12.3039 108.047 10.9773 108.047 9.44H106.047C106.047 10.516 105.716 11.2961 105.111 11.8814L106.502 13.3186ZM108.047 9.44C108.047 7.88196 107.555 6.53392 106.514 5.49289L105.1 6.9071C105.712 7.51941 106.047 8.33137 106.047 9.44H108.047ZM106.514 5.49289C105.469 4.448 104.105 3.96 102.527 3.96V5.96C103.668 5.96 104.491 6.29867 105.1 6.90711L106.514 5.49289ZM102.527 3.96H96.5669V5.96H102.527V3.96ZM96.5669 3.96C96.3461 3.96 95.9968 4.01588 95.7098 4.30289C95.4228 4.58991 95.3669 4.93919 95.3669 5.16H97.3669C97.3669 5.24748 97.3443 5.49676 97.124 5.71711C96.9036 5.93745 96.6544 5.96 96.5669 5.96V3.96ZM95.3669 5.16V13.6H97.3669V5.16H95.3669ZM95.3669 13.6C95.3669 13.8208 95.4228 14.1701 95.7098 14.4571C95.9968 14.7441 96.3461 14.8 96.5669 14.8V12.8C96.6544 12.8 96.9036 12.8225 97.124 13.0429C97.3443 13.2632 97.3669 13.5125 97.3669 13.6H95.3669ZM96.5669 14.8H102.527V12.8H96.5669V14.8ZM121.916 28.2L121.445 29.082L121.457 29.0882L121.916 28.2ZM118.316 24.72L117.441 25.2044L117.448 25.2161L118.316 24.72ZM118.356 5.36L119.22 5.86291L119.224 5.85614L118.356 5.36ZM121.916 1.92L122.382 2.80493L122.387 2.80193L121.916 1.92ZM132.556 1.92L132.078 2.79848L132.087 2.80344L132.097 2.80822L132.556 1.92ZM136.156 5.36L135.288 5.85615L135.292 5.86289L136.156 5.36ZM136.156 24.72L137.024 25.2161V25.2161L136.156 24.72ZM132.556 28.2L133.022 29.0849L133.027 29.0819L132.556 28.2ZM131.276 23.84L130.56 23.1421L131.276 23.84ZM131.276 6.24L130.56 6.93786V6.93786L131.276 6.24ZM123.236 6.24L123.952 6.93786L123.952 6.93786L123.236 6.24ZM127.236 28.4C125.372 28.4 123.76 28.0281 122.375 27.3118L121.457 29.0882C123.165 29.9719 125.1 30.4 127.236 30.4V28.4ZM122.387 27.3181C121.003 26.5783 119.942 25.5505 119.184 24.2239L117.448 25.2161C118.396 26.8762 119.735 28.1684 121.445 29.0819L122.387 27.3181ZM119.191 24.2357C118.457 22.9103 118.076 21.3613 118.076 19.56H116.076C116.076 21.652 116.521 23.543 117.441 25.2043L119.191 24.2357ZM118.076 19.56V10.44H116.076V19.56H118.076ZM118.076 10.44C118.076 8.67298 118.467 7.1576 119.22 5.86289L117.492 4.85711C116.538 6.49573 116.076 8.36702 116.076 10.44H118.076ZM119.224 5.85614C119.983 4.52783 121.03 3.51614 122.382 2.80492L121.45 1.03508C119.762 1.92385 118.435 3.2055 117.488 4.86386L119.224 5.85614ZM122.387 2.80193C123.77 2.06308 125.377 1.68 127.236 1.68V-0.32C125.095 -0.32 123.156 0.12359 121.445 1.03807L122.387 2.80193ZM127.236 1.68C129.124 1.68 130.728 2.06423 132.078 2.79848L133.034 1.04151C131.344 0.12244 129.401 -0.32 127.236 -0.32V1.68ZM132.097 2.80822C133.474 3.52083 134.531 4.53236 135.288 5.85614L137.024 4.86386C136.074 3.20097 134.731 1.91917 133.015 1.03178L132.097 2.80822ZM135.292 5.86289C136.045 7.1576 136.436 8.67298 136.436 10.44H138.436C138.436 8.36702 137.974 6.49573 137.02 4.85711L135.292 5.86289ZM136.436 10.44V19.56H138.436V10.44H136.436ZM136.436 19.56C136.436 21.356 136.044 22.9007 135.288 24.2239L137.024 25.2161C137.975 23.5526 138.436 21.6573 138.436 19.56H136.436ZM135.288 24.2239C134.53 25.5505 133.469 26.5783 132.085 27.3181L133.027 29.0819C134.736 28.1684 136.076 26.8762 137.024 25.2161L135.288 24.2239ZM132.09 27.3151C130.738 28.027 129.129 28.4 127.236 28.4V30.4C129.396 30.4 131.334 29.973 133.022 29.0849L132.09 27.3151ZM127.236 26.4C129.14 26.4 130.761 25.8017 131.992 24.5379L130.56 23.1421C129.764 23.9583 128.692 24.4 127.236 24.4V26.4ZM131.992 24.5379C133.219 23.2787 133.796 21.6383 133.796 19.72H131.796C131.796 21.215 131.36 22.3213 130.56 23.1421L131.992 24.5379ZM133.796 19.72V10.4H131.796V19.72H133.796ZM133.796 10.4C133.796 8.45988 133.222 6.80423 131.992 5.54213L130.56 6.93786C131.357 7.75577 131.796 8.87346 131.796 10.4H133.796ZM131.992 5.54214C130.761 4.2783 129.14 3.68 127.236 3.68V5.68C128.692 5.68 129.764 6.12169 130.56 6.93786L131.992 5.54214ZM127.236 3.68C125.354 3.68 123.748 4.28154 122.52 5.54214L123.952 6.93786C124.751 6.11846 125.811 5.68 127.236 5.68V3.68ZM122.52 5.54213C121.29 6.80423 120.716 8.45988 120.716 10.4H122.716C122.716 8.87346 123.155 7.75577 123.952 6.93786L122.52 5.54213ZM120.716 10.4V19.72H122.716V10.4H120.716ZM120.716 19.72C120.716 21.6383 121.293 23.2787 122.52 24.5379L123.952 23.1421C123.152 22.3213 122.716 21.215 122.716 19.72H120.716ZM122.52 24.5379C123.748 25.7985 125.354 26.4 127.236 26.4V24.4C125.811 24.4 124.751 23.9615 123.952 23.1421L122.52 24.5379ZM154.727 28.88L153.928 29.48L154.013 29.5943L154.128 29.68L154.727 28.88ZM154.727 1.16L154.02 0.452892V0.452894L154.727 1.16ZM169.848 2L169.427 2.90747V2.90747L169.848 2ZM173.167 4.88L172.316 5.40511L172.323 5.41577L172.33 5.42627L173.167 4.88ZM173.167 25.16L172.325 24.622L172.322 24.6267L173.167 25.16ZM169.848 28L170.268 28.9075L169.848 28ZM168.408 23.68L167.679 22.9946L167.679 22.9953L168.408 23.68ZM169.728 20.08L170.727 20.0979L170.728 20.0889V20.08H169.728ZM168.447 6.36L167.719 7.04536L167.724 7.05079L167.73 7.05614L168.447 6.36ZM155.087 28C155.122 28 155.166 28.0055 155.214 28.0213C155.261 28.0371 155.3 28.059 155.327 28.08L154.128 29.68C154.407 29.8898 154.738 30 155.087 30V28ZM155.527 28.28C155.548 28.308 155.57 28.3464 155.586 28.3938C155.602 28.4411 155.607 28.485 155.607 28.52H153.607C153.607 28.8697 153.718 29.2002 153.928 29.48L155.527 28.28ZM155.607 28.52V1.48H153.607V28.52H155.607ZM155.607 1.48C155.607 1.5132 155.602 1.57483 155.574 1.65112C155.544 1.73049 155.496 1.80544 155.435 1.8671L154.02 0.452894C153.72 0.753629 153.607 1.13241 153.607 1.48H155.607ZM155.435 1.8671C155.414 1.88781 155.371 1.92379 155.304 1.95381C155.234 1.98486 155.159 2 155.087 2V-1.90735e-06C154.653 -1.90735e-06 154.288 0.185537 154.02 0.452892L155.435 1.8671ZM155.087 2H164.848V-1.90735e-06H155.087V2ZM164.848 2C166.623 2 168.142 2.31239 169.427 2.90747L170.268 1.09253C168.673 0.354273 166.858 -1.90735e-06 164.848 -1.90735e-06V2ZM169.427 2.90747C170.704 3.49839 171.654 4.33178 172.316 5.40511L174.019 4.35489C173.134 2.92155 171.871 1.83494 170.268 1.09253L169.427 2.90747ZM172.33 5.42627C173.011 6.47011 173.368 7.71485 173.368 9.2H175.368C175.368 7.37848 174.924 5.74322 174.005 4.33373L172.33 5.42627ZM173.368 9.2V20.8H175.368V9.2H173.368ZM173.368 20.8C173.368 22.2847 173.011 23.547 172.325 24.622L174.01 25.698C174.924 24.2664 175.368 22.6219 175.368 20.8H173.368ZM172.322 24.6267C171.661 25.6749 170.709 26.499 169.427 27.0925L170.268 28.9075C171.866 28.1677 173.128 27.0984 174.013 25.6933L172.322 24.6267ZM169.427 27.0925C168.142 27.6876 166.623 28 164.848 28V30C166.858 30 168.673 29.6457 170.268 28.9075L169.427 27.0925ZM164.848 28H155.087V30H164.848V28ZM158.247 24.8C158.247 25.0208 158.303 25.3701 158.59 25.6571C158.877 25.9441 159.227 26 159.447 26V24C159.535 24 159.784 24.0225 160.005 24.2429C160.225 24.4632 160.247 24.7125 160.247 24.8H158.247ZM159.447 26H165.048V24H159.447V26ZM165.048 26C166.686 26 168.088 25.4804 169.136 24.3647L167.679 22.9953C167.073 23.6396 166.236 24 165.048 24V26ZM169.136 24.3654C170.192 23.2429 170.697 21.7874 170.727 20.0979L168.728 20.0621C168.704 21.3593 168.33 22.3038 167.679 22.9946L169.136 24.3654ZM170.728 20.08V9.96H168.728V20.08H170.728ZM170.728 9.96C170.728 8.24586 170.241 6.77283 169.165 5.66385L167.73 7.05614C168.361 7.70717 168.728 8.63414 168.728 9.96H170.728ZM169.176 5.67463C168.103 4.53522 166.676 4 165.008 4V6C166.219 6 167.085 6.37144 167.719 7.04536L169.176 5.67463ZM165.008 4H159.447V6H165.008V4ZM159.447 4C159.227 4 158.877 4.05588 158.59 4.34289C158.303 4.62991 158.247 4.97919 158.247 5.2H160.247C160.247 5.28748 160.225 5.53676 160.005 5.75711C159.784 5.97745 159.535 6 159.447 6V4ZM158.247 5.2V24.8H160.247V5.2H158.247ZM195.654 13.04L194.854 13.64L194.94 13.7543L195.054 13.84L195.654 13.04ZM195.654 16.76L194.947 16.0529V16.0529L195.654 16.76ZM200.134 25.16L199.334 25.76L199.42 25.8743L199.534 25.96L200.134 25.16ZM200.134 28.88L200.841 29.5871V29.5871L200.134 28.88ZM181.454 28.88L180.654 29.48L180.74 29.5943L180.854 29.68L181.454 28.88ZM181.454 1.16L180.747 0.452892V0.452894L181.454 1.16ZM200.134 1.16L199.334 1.76L199.42 1.87428L199.534 1.96L200.134 1.16ZM199.294 4.52C199.294 4.44896 199.309 4.37372 199.34 4.30386C199.37 4.23633 199.406 4.19359 199.427 4.17289L200.841 5.5871C201.109 5.31975 201.294 4.95425 201.294 4.52H199.294ZM199.427 4.17289C199.489 4.11123 199.564 4.06344 199.643 4.03367C199.719 4.00506 199.781 4 199.814 4V6C200.162 6 200.54 5.88784 200.841 5.5871L199.427 4.17289ZM199.814 4H186.174V6H199.814V4ZM186.174 4C185.953 4 185.604 4.05588 185.317 4.34289C185.03 4.62991 184.974 4.97919 184.974 5.2H186.974C186.974 5.28748 186.952 5.53676 186.731 5.75711C186.511 5.97745 186.262 6 186.174 6V4ZM184.974 5.2V12.68H186.974V5.2H184.974ZM184.974 12.68C184.974 12.9008 185.03 13.2501 185.317 13.5371C185.604 13.8241 185.953 13.88 186.174 13.88V11.88C186.262 11.88 186.511 11.9025 186.731 12.1229C186.952 12.3432 186.974 12.5925 186.974 12.68H184.974ZM186.174 13.88H195.334V11.88H186.174V13.88ZM195.334 13.88C195.264 13.88 195.168 13.865 195.067 13.8144C194.966 13.7638 194.896 13.696 194.854 13.64L196.454 12.44C196.185 12.0815 195.782 11.88 195.334 11.88V13.88ZM195.054 13.84C194.998 13.798 194.93 13.7284 194.88 13.6272C194.829 13.526 194.814 13.4301 194.814 13.36H196.814C196.814 12.9119 196.613 12.5089 196.254 12.24L195.054 13.84ZM194.814 13.36V16.4H196.814V13.36H194.814ZM194.814 16.4C194.814 16.329 194.829 16.2537 194.86 16.1839C194.89 16.1163 194.926 16.0736 194.947 16.0529L196.361 17.4671C196.629 17.1998 196.814 16.8342 196.814 16.4H194.814ZM194.947 16.0529C195.009 15.9912 195.084 15.9434 195.163 15.9137C195.239 15.8851 195.301 15.88 195.334 15.88V17.88C195.682 17.88 196.06 17.7678 196.361 17.4671L194.947 16.0529ZM195.334 15.88H186.174V17.88H195.334V15.88ZM186.174 15.88C185.953 15.88 185.604 15.9359 185.317 16.2229C185.03 16.5099 184.974 16.8592 184.974 17.08H186.974C186.974 17.1675 186.952 17.4168 186.731 17.6371C186.511 17.8575 186.262 17.88 186.174 17.88V15.88ZM184.974 17.08V24.8H186.974V17.08H184.974ZM184.974 24.8C184.974 25.0208 185.03 25.3701 185.317 25.6571C185.604 25.9441 185.953 26 186.174 26V24C186.262 24 186.511 24.0225 186.731 24.2429C186.952 24.4632 186.974 24.7125 186.974 24.8H184.974ZM186.174 26H199.814V24H186.174V26ZM199.814 26C199.744 26 199.648 25.985 199.547 25.9344C199.446 25.8838 199.376 25.816 199.334 25.76L200.934 24.56C200.665 24.2015 200.262 24 199.814 24V26ZM199.534 25.96C199.478 25.918 199.41 25.8484 199.36 25.7472C199.309 25.646 199.294 25.5501 199.294 25.48H201.294C201.294 25.0319 201.093 24.6289 200.734 24.36L199.534 25.96ZM199.294 25.48V28.52H201.294V25.48H199.294ZM199.294 28.52C199.294 28.449 199.309 28.3737 199.34 28.3039C199.37 28.2363 199.406 28.1936 199.427 28.1729L200.841 29.5871C201.109 29.3198 201.294 28.9542 201.294 28.52H199.294ZM199.427 28.1729C199.489 28.1112 199.564 28.0634 199.643 28.0337C199.719 28.0051 199.781 28 199.814 28V30C200.162 30 200.54 29.8878 200.841 29.5871L199.427 28.1729ZM199.814 28H181.814V30H199.814V28ZM181.814 28C181.849 28 181.893 28.0055 181.94 28.0213C181.988 28.0371 182.026 28.059 182.054 28.08L180.854 29.68C181.134 29.8898 181.464 30 181.814 30V28ZM182.254 28.28C182.275 28.308 182.297 28.3464 182.313 28.3938C182.329 28.4411 182.334 28.485 182.334 28.52H180.334C180.334 28.8697 180.444 29.2002 180.654 29.48L182.254 28.28ZM182.334 28.52V1.48H180.334V28.52H182.334ZM182.334 1.48C182.334 1.5132 182.329 1.57483 182.3 1.65112C182.271 1.73049 182.223 1.80544 182.161 1.8671L180.747 0.452894C180.446 0.753629 180.334 1.13241 180.334 1.48H182.334ZM182.161 1.8671C182.14 1.88781 182.098 1.92379 182.03 1.95381C181.96 1.98486 181.885 2 181.814 2V-1.90735e-06C181.38 -1.90735e-06 181.014 0.185537 180.747 0.452892L182.161 1.8671ZM181.814 2H199.814V-1.90735e-06H181.814V2ZM199.814 2C199.744 2 199.648 1.98502 199.547 1.93443C199.446 1.88383 199.376 1.81604 199.334 1.76L200.934 0.559997C200.665 0.201527 200.262 -1.90735e-06 199.814 -1.90735e-06V2ZM199.534 1.96C199.478 1.91796 199.41 1.8484 199.36 1.74721C199.309 1.64602 199.294 1.55005 199.294 1.48H201.294C201.294 1.03191 201.093 0.628854 200.734 0.36L199.534 1.96ZM199.294 1.48V4.52H201.294V1.48H199.294ZM235.734 1.16L234.934 1.75999L235.019 1.87428L235.134 1.96L235.734 1.16ZM235.734 4.92L235.027 4.21289V4.2129L235.734 4.92ZM227.694 28.88L226.987 28.1729V28.1729L227.694 28.88ZM223.334 28.88L222.534 29.48L222.619 29.5943L222.734 29.68L223.334 28.88ZM215.574 4.92L214.774 5.52L214.859 5.63428L214.974 5.72L215.574 4.92ZM215.574 1.16L214.867 0.452892V0.452894L215.574 1.16ZM235.414 2C235.344 2 235.248 1.98502 235.147 1.93442C235.045 1.88383 234.976 1.81604 234.934 1.75999L236.534 0.560004C236.265 0.201528 235.862 -1.90735e-06 235.414 -1.90735e-06V2ZM235.134 1.96C235.078 1.91796 235.01 1.8484 234.959 1.74721C234.909 1.64602 234.894 1.55005 234.894 1.48H236.894C236.894 1.03191 236.692 0.628854 236.334 0.36L235.134 1.96ZM234.894 1.48V4.56H236.894V1.48H234.894ZM234.894 4.56C234.894 4.48896 234.909 4.41372 234.94 4.34386C234.97 4.27632 235.006 4.23359 235.027 4.21289L236.441 5.62711C236.708 5.35975 236.894 4.99425 236.894 4.56H234.894ZM235.027 4.2129C235.088 4.15124 235.163 4.10344 235.243 4.07367C235.319 4.04506 235.381 4.04 235.414 4.04V6.04C235.761 6.04 236.14 5.92784 236.441 5.6271L235.027 4.2129ZM235.414 4.04H228.054V6.04H235.414V4.04ZM228.054 4.04C227.833 4.04 227.484 4.09588 227.197 4.38289C226.91 4.6699 226.854 5.01919 226.854 5.24H228.854C228.854 5.32748 228.831 5.57676 228.611 5.79711C228.391 6.01745 228.141 6.04 228.054 6.04V4.04ZM226.854 5.24V28.52H228.854V5.24H226.854ZM226.854 28.52C226.854 28.449 226.869 28.3737 226.9 28.3039C226.93 28.2363 226.966 28.1936 226.987 28.1729L228.401 29.5871C228.668 29.3198 228.854 28.9542 228.854 28.52H226.854ZM226.987 28.1729C227.048 28.1112 227.123 28.0634 227.203 28.0337C227.279 28.0051 227.341 28 227.374 28V30C227.721 30 228.1 29.8878 228.401 29.5871L226.987 28.1729ZM227.374 28H223.694V30H227.374V28ZM223.694 28C223.729 28 223.773 28.0055 223.82 28.0213C223.867 28.0371 223.906 28.059 223.934 28.08L222.734 29.68C223.014 29.8898 223.344 30 223.694 30V28ZM224.134 28.28C224.155 28.308 224.177 28.3464 224.192 28.3938C224.208 28.4411 224.214 28.485 224.214 28.52H222.214C222.214 28.8697 222.324 29.2002 222.534 29.48L224.134 28.28ZM224.214 28.52V5.24H222.214V28.52H224.214ZM224.214 5.24C224.214 5.01919 224.158 4.6699 223.871 4.38289C223.584 4.09588 223.235 4.04 223.014 4.04V6.04C222.926 6.04 222.677 6.01745 222.457 5.79711C222.236 5.57676 222.214 5.32748 222.214 5.24H224.214ZM223.014 4.04H215.934V6.04H223.014V4.04ZM215.934 4.04C215.969 4.04 216.013 4.04553 216.06 4.06132C216.107 4.07711 216.146 4.09902 216.174 4.12L214.974 5.72C215.254 5.92982 215.584 6.04 215.934 6.04V4.04ZM216.374 4.31999C216.395 4.34797 216.417 4.3864 216.432 4.43377C216.448 4.48114 216.454 4.52503 216.454 4.56H214.454C214.454 4.9097 214.564 5.24024 214.774 5.52L216.374 4.31999ZM216.454 4.56V1.48H214.454V4.56H216.454ZM216.454 1.48C216.454 1.5132 216.449 1.57483 216.42 1.65112C216.39 1.73049 216.343 1.80544 216.281 1.8671L214.867 0.452894C214.566 0.753629 214.454 1.13241 214.454 1.48H216.454ZM216.281 1.8671C216.26 1.88781 216.217 1.92379 216.15 1.95381C216.08 1.98486 216.005 2 215.934 2V-1.90735e-06C215.499 -1.90735e-06 215.134 0.185536 214.867 0.452892L216.281 1.8671ZM215.934 2H235.414V-1.90735e-06H215.934V2ZM257.338 28.64L258.252 28.2338L258.247 28.2233L257.338 28.64ZM252.058 17.12L252.967 16.7033L252.96 16.6879L252.952 16.6728L252.058 17.12ZM246.658 28.88L245.951 28.1729L245.951 28.1729L246.658 28.88ZM242.298 28.88L241.498 29.48L241.584 29.5943L241.698 29.68L242.298 28.88ZM242.298 1.16L241.591 0.452892V0.452894L242.298 1.16ZM257.978 2.04L257.494 2.91503L257.501 2.91901L257.508 2.92287L257.978 2.04ZM260.898 4.92L260.023 5.40408L260.027 5.41206L260.898 4.92ZM260.498 13.88L259.692 13.2879L259.69 13.2908L260.498 13.88ZM256.578 16.56V17.56H256.725L256.867 17.5174L256.578 16.56ZM256.458 16.64L255.563 16.1928V16.1928L256.458 16.64ZM256.458 16.8L257.358 16.3639L257.352 16.3528L256.458 16.8ZM262.098 28.44L261.198 28.8761L261.203 28.8872L262.098 28.44ZM256.098 12.24L256.792 12.9594L256.793 12.959L256.098 12.24ZM256.098 6.16L255.391 6.86711L255.397 6.8731L255.403 6.87899L256.098 6.16ZM257.898 28C257.917 28 258.001 28.0058 258.099 28.0688C258.198 28.1325 258.241 28.2089 258.252 28.2339L256.424 29.0461C256.542 29.3111 256.731 29.5675 257.017 29.7512C257.302 29.9342 257.612 30 257.898 30V28ZM258.247 28.2233L252.967 16.7033L251.149 17.5367L256.429 29.0567L258.247 28.2233ZM252.952 16.6728C252.866 16.5008 252.728 16.3118 252.513 16.1679C252.291 16.02 252.046 15.96 251.818 15.96V17.96C251.696 17.96 251.545 17.9267 251.403 17.832C251.267 17.7416 251.196 17.6325 251.163 17.5672L252.952 16.6728ZM251.818 15.96H247.018V17.96H251.818V15.96ZM247.018 15.96C246.797 15.96 246.448 16.0159 246.161 16.3029C245.874 16.5899 245.818 16.9392 245.818 17.16H247.818C247.818 17.2475 247.795 17.4968 247.575 17.7171C247.355 17.9375 247.105 17.96 247.018 17.96V15.96ZM245.818 17.16V28.52H247.818V17.16H245.818ZM245.818 28.52C245.818 28.449 245.833 28.3737 245.864 28.3039C245.894 28.2363 245.93 28.1936 245.951 28.1729L247.365 29.5871C247.632 29.3198 247.818 28.9542 247.818 28.52H245.818ZM245.951 28.1729C246.012 28.1112 246.087 28.0634 246.167 28.0337C246.243 28.0051 246.305 28 246.338 28V30C246.685 30 247.064 29.8878 247.365 29.5871L245.951 28.1729ZM246.338 28H242.658V30H246.338V28ZM242.658 28C242.693 28 242.737 28.0055 242.784 28.0213C242.831 28.0371 242.87 28.059 242.898 28.08L241.698 29.68C241.978 29.8898 242.308 30 242.658 30V28ZM243.098 28.28C243.119 28.308 243.141 28.3464 243.156 28.3938C243.172 28.4411 243.178 28.485 243.178 28.52H241.178C241.178 28.8697 241.288 29.2002 241.498 29.48L243.098 28.28ZM243.178 28.52V1.48H241.178V28.52H243.178ZM243.178 1.48C243.178 1.5132 243.173 1.57483 243.144 1.65112C243.114 1.73049 243.067 1.80544 243.005 1.8671L241.591 0.452894C241.29 0.753629 241.178 1.13241 241.178 1.48H243.178ZM243.005 1.8671C242.984 1.88781 242.941 1.92379 242.874 1.95381C242.804 1.98486 242.729 2 242.658 2V-1.90735e-06C242.224 -1.90735e-06 241.858 0.185537 241.591 0.452892L243.005 1.8671ZM242.658 2H253.658V-1.90735e-06H242.658V2ZM253.658 2C255.138 2 256.408 2.31425 257.494 2.91503L258.462 1.16497C257.041 0.37908 255.431 -1.90735e-06 253.658 -1.90735e-06V2ZM257.508 2.92287C258.589 3.49778 259.422 4.31849 260.023 5.40406L261.773 4.43594C260.987 3.01484 259.873 1.91555 258.447 1.15713L257.508 2.92287ZM260.027 5.41206C260.625 6.46921 260.938 7.70869 260.938 9.16H262.938C262.938 7.4113 262.558 5.82412 261.768 4.42794L260.027 5.41206ZM260.938 9.16C260.938 10.817 260.509 12.1756 259.692 13.2879L261.304 14.4721C262.406 12.9711 262.938 11.183 262.938 9.16H260.938ZM259.69 13.2908C258.899 14.3758 257.784 15.1517 256.289 15.6026L256.867 17.5174C258.731 16.955 260.23 15.9442 261.306 14.4692L259.69 13.2908ZM256.578 15.56C256.376 15.56 256.155 15.6133 255.953 15.7479C255.757 15.8784 255.636 16.0475 255.563 16.1928L257.352 17.0872C257.306 17.1792 257.218 17.3082 257.062 17.4121C256.901 17.52 256.726 17.56 256.578 17.56V15.56ZM255.563 16.1928C255.396 16.5276 255.396 16.9123 255.563 17.2472L257.352 16.3528C257.4 16.4484 257.438 16.5739 257.438 16.72C257.438 16.8661 257.4 16.9916 257.352 17.0872L255.563 16.1928ZM255.558 17.236L261.198 28.876L262.998 28.004L257.358 16.364L255.558 17.236ZM261.203 28.8872C261.217 28.914 261.215 28.9152 261.209 28.8962C261.206 28.8858 261.199 28.8634 261.192 28.8311C261.186 28.7999 261.178 28.7476 261.178 28.68H263.178C263.178 28.3718 263.049 28.1073 262.992 27.9928L261.203 28.8872ZM261.178 28.68C261.178 28.6194 261.188 28.5188 261.241 28.4033C261.297 28.2824 261.382 28.1824 261.48 28.1113C261.654 27.9846 261.793 28 261.738 28V30C261.976 30 262.335 29.962 262.656 29.7287C263.036 29.4524 263.178 29.0424 263.178 28.68H261.178ZM261.738 28H257.898V30H261.738V28ZM247.018 4C246.797 4 246.448 4.05588 246.161 4.34289C245.874 4.62991 245.818 4.97919 245.818 5.2H247.818C247.818 5.28748 247.795 5.53676 247.575 5.75711C247.355 5.97745 247.105 6 247.018 6V4ZM245.818 5.2V13.16H247.818V5.2H245.818ZM245.818 13.16C245.818 13.3808 245.874 13.7301 246.161 14.0171C246.448 14.3041 246.797 14.36 247.018 14.36V12.36C247.105 12.36 247.355 12.3825 247.575 12.6029C247.795 12.8232 247.818 13.0725 247.818 13.16H245.818ZM247.018 14.36H253.018V12.36H247.018V14.36ZM253.018 14.36C254.504 14.36 255.798 13.9196 256.792 12.9594L255.403 11.5206C254.851 12.0537 254.091 12.36 253.018 12.36V14.36ZM256.793 12.959C257.813 11.9726 258.298 10.6868 258.298 9.2H256.298C256.298 10.2198 255.982 10.9607 255.403 11.521L256.793 12.959ZM258.298 9.2C258.298 7.71317 257.813 6.42738 256.793 5.44101L255.403 6.87899C255.982 7.43928 256.298 8.18016 256.298 9.2H258.298ZM256.805 5.45289C255.812 4.46016 254.514 4 253.018 4V6C254.081 6 254.837 6.31317 255.391 6.86711L256.805 5.45289ZM253.018 4H247.018V6H253.018V4ZM286.487 28.6L287.444 28.3126L287.442 28.3053L286.487 28.6ZM285.167 24.32L286.122 24.0253L286.098 23.9465L286.061 23.8728L285.167 24.32ZM274.207 24.32L273.312 23.8728L273.275 23.9465L273.251 24.0253L274.207 24.32ZM272.887 28.6L271.931 28.3053L271.929 28.3127L272.887 28.6ZM268.007 28.88L267.207 29.48L267.249 29.5369L267.299 29.5871L268.007 28.88ZM267.967 28.44L267.014 28.1344L267.009 28.1497L267.005 28.1653L267.967 28.44ZM276.647 1.4L277.599 1.70564L277.602 1.69652L277.604 1.68735L276.647 1.4ZM282.687 1.4L281.729 1.68735L281.732 1.69716L281.735 1.70692L282.687 1.4ZM291.407 28.44L290.455 28.7469L290.478 28.8192L290.512 28.8872L291.407 28.44ZM275.447 20.28L274.49 19.9887L274.471 20.0512L274.46 20.1156L275.447 20.28ZM283.887 20.28L282.931 20.5739L282.934 20.5851L282.938 20.5962L283.887 20.28ZM279.767 6.88L278.796 7.12253L278.803 7.1484L278.811 7.17388L279.767 6.88ZM279.527 6.88L280.483 7.17127L280.491 7.14707L280.497 7.12253L279.527 6.88ZM287.007 28C287.044 28 287.162 28.0121 287.286 28.1074C287.406 28.1996 287.441 28.3003 287.444 28.3127L285.529 28.8873C285.612 29.1664 285.774 29.4671 286.067 29.6926C286.364 29.9212 286.702 30 287.007 30V28ZM287.442 28.3053L286.122 24.0253L284.211 24.6147L285.531 28.8947L287.442 28.3053ZM286.061 23.8728C285.931 23.6134 285.596 23.16 284.967 23.16V25.16C284.764 25.16 284.583 25.0858 284.452 24.9809C284.337 24.8887 284.286 24.7953 284.272 24.7672L286.061 23.8728ZM284.967 23.16H274.407V25.16H284.967V23.16ZM274.407 23.16C273.777 23.16 273.442 23.6134 273.312 23.8728L275.101 24.7672C275.087 24.7953 275.036 24.8887 274.921 24.9809C274.79 25.0858 274.609 25.16 274.407 25.16V23.16ZM273.251 24.0253L271.931 28.3053L273.842 28.8947L275.162 24.6147L273.251 24.0253ZM271.929 28.3127C271.932 28.3003 271.967 28.1996 272.087 28.1074C272.211 28.0121 272.329 28 272.367 28V30C272.671 30 273.009 29.9212 273.306 29.6926C273.599 29.4671 273.761 29.1664 273.844 28.8873L271.929 28.3127ZM272.367 28H268.367V30H272.367V28ZM268.367 28C268.367 28 268.408 27.9997 268.473 28.0213C268.543 28.0446 268.632 28.0907 268.714 28.1729L267.299 29.5871C267.633 29.9208 268.052 30 268.367 30V28ZM268.807 28.28C268.889 28.3903 268.924 28.508 268.932 28.5995C268.94 28.6812 268.925 28.7252 268.928 28.7147L267.005 28.1653C266.907 28.5091 266.864 29.0239 267.207 29.48L268.807 28.28ZM268.919 28.7456L277.599 1.70564L275.694 1.09435L267.014 28.1344L268.919 28.7456ZM277.604 1.68735C277.601 1.69971 277.566 1.80044 277.446 1.89262C277.322 1.98785 277.204 2 277.167 2V-1.90735e-06C276.862 -1.90735e-06 276.524 0.0788078 276.227 0.307374C275.934 0.532894 275.772 0.833618 275.689 1.11265L277.604 1.68735ZM277.167 2H282.167V-1.90735e-06H277.167V2ZM282.167 2C282.129 2 282.011 1.98786 281.887 1.89262C281.767 1.80044 281.732 1.69971 281.729 1.68735L283.644 1.11265C283.561 0.833619 283.399 0.532894 283.106 0.307373C282.809 0.0788069 282.471 -1.90735e-06 282.167 -1.90735e-06V2ZM281.735 1.70692L290.455 28.7469L292.358 28.1331L283.638 1.09308L281.735 1.70692ZM290.512 28.8872C290.45 28.7626 290.447 28.6646 290.447 28.64H292.447C292.447 28.4554 292.417 28.2241 292.301 27.9928L290.512 28.8872ZM290.447 28.64C290.447 28.547 290.485 28.3149 290.703 28.136C290.884 27.9886 291.042 28 291.007 28V30C291.264 30 291.643 29.9514 291.97 29.684C292.335 29.3851 292.447 28.973 292.447 28.64H290.447ZM291.007 28H287.007V30H291.007V28ZM274.46 20.1156C274.432 20.2858 274.397 20.6586 274.635 21.0147C274.913 21.4328 275.347 21.52 275.607 21.52V19.52C275.733 19.52 276.073 19.5672 276.299 19.9053C276.483 20.1814 276.435 20.4342 276.433 20.4444L274.46 20.1156ZM275.607 21.52H283.727V19.52H275.607V21.52ZM283.727 21.52C283.916 21.52 284.409 21.4786 284.719 21.0147C285.011 20.5764 284.889 20.1242 284.835 19.9638L282.938 20.5962C282.938 20.5958 282.816 20.2636 283.055 19.9053C283.31 19.5214 283.697 19.52 283.727 19.52V21.52ZM284.842 19.9861L280.722 6.58611L278.811 7.17388L282.931 20.5739L284.842 19.9861ZM280.737 6.63747C280.709 6.52805 280.652 6.3405 280.517 6.16C280.36 5.95135 280.066 5.72 279.647 5.72V7.72C279.28 7.72 279.033 7.51531 278.917 7.36C278.821 7.23284 278.797 7.12528 278.796 7.12253L280.737 6.63747ZM279.647 5.72C279.227 5.72 278.933 5.95135 278.777 6.16C278.641 6.3405 278.584 6.52805 278.556 6.63747L280.497 7.12253C280.496 7.12528 280.472 7.23284 280.377 7.36C280.26 7.51531 280.013 7.72 279.647 7.72V5.72ZM278.57 6.58872L274.49 19.9887L276.403 20.5713L280.483 7.17127L278.57 6.58872ZM313.224 14.4L312.817 13.4866L312.797 13.4956L312.777 13.5056L313.224 14.4ZM313.224 14.64L312.777 15.5344L312.788 15.5397L312.798 15.5448L313.224 14.64ZM314.744 27.04L315.358 27.8294L315.36 27.828L314.744 27.04ZM297.704 28.88L296.904 29.48L296.99 29.5943L297.104 29.68L297.704 28.88ZM297.704 1.16L296.997 0.452892V0.452894L297.704 1.16ZM314.544 2.88L315.167 2.09784L314.544 2.88ZM311.144 11.8L311.784 12.5682L311.787 12.5662L311.144 11.8ZM311.144 6.08L310.475 6.82329L310.488 6.83497L310.501 6.84619L311.144 6.08ZM311.424 23.84L310.754 23.0979L310.748 23.1034L310.742 23.1089L311.424 23.84ZM311.424 17.76L310.754 18.5021L310.76 18.5082L310.767 18.5141L311.424 17.76ZM312.777 13.5056C312.69 13.5491 312.554 13.6259 312.427 13.7529C312.298 13.8819 312.104 14.1412 312.104 14.52C312.104 14.8988 312.298 15.1581 312.427 15.2871C312.554 15.4141 312.69 15.4909 312.777 15.5344L313.671 13.7456C313.678 13.7491 313.754 13.7859 313.841 13.8729C313.93 13.9619 314.104 14.1812 314.104 14.52C314.104 14.8588 313.93 15.0781 313.841 15.1671C313.754 15.2541 313.678 15.2909 313.671 15.2944L312.777 13.5056ZM312.798 15.5448C314.012 16.116 314.871 16.866 315.433 17.7758C315.997 18.688 316.304 19.8272 316.304 21.24H318.304C318.304 19.5328 317.931 18.012 317.135 16.7242C316.337 15.434 315.156 14.444 313.65 13.7352L312.798 15.5448ZM316.304 21.24C316.304 23.5243 315.55 25.1416 314.128 26.252L315.36 27.828C317.352 26.2717 318.304 24.0224 318.304 21.24H316.304ZM314.13 26.2506C312.669 27.3868 310.704 28 308.144 28V30C311.024 30 313.459 29.3065 315.358 27.8294L314.13 26.2506ZM308.144 28H298.064V30H308.144V28ZM298.064 28C298.099 28 298.143 28.0055 298.19 28.0213C298.238 28.0371 298.276 28.059 298.304 28.08L297.104 29.68C297.384 29.8898 297.714 30 298.064 30V28ZM298.504 28.28C298.525 28.308 298.547 28.3464 298.563 28.3938C298.579 28.4411 298.584 28.485 298.584 28.52H296.584C296.584 28.8697 296.694 29.2002 296.904 29.48L298.504 28.28ZM298.584 28.52V1.48H296.584V28.52H298.584ZM298.584 1.48C298.584 1.5132 298.579 1.57483 298.55 1.65112C298.521 1.73049 298.473 1.80544 298.411 1.8671L296.997 0.452894C296.696 0.753629 296.584 1.13241 296.584 1.48H298.584ZM298.411 1.8671C298.39 1.88781 298.348 1.92379 298.28 1.95381C298.21 1.98486 298.135 2 298.064 2V-1.90735e-06C297.63 -1.90735e-06 297.264 0.185537 296.997 0.452892L298.411 1.8671ZM298.064 2H307.824V-1.90735e-06H298.064V2ZM307.824 2C310.602 2 312.588 2.60067 313.921 3.66216L315.167 2.09784C313.353 0.652656 310.859 -1.90735e-06 307.824 -1.90735e-06V2ZM313.921 3.66216C315.196 4.67774 315.904 6.24472 315.904 8.56H317.904C317.904 5.80861 317.039 3.58893 315.167 2.09784L313.921 3.66216ZM315.904 8.56C315.904 9.81244 315.631 10.8047 315.138 11.5869C314.647 12.3663 313.894 13.0067 312.817 13.4866L313.631 15.3134C315.008 14.7 316.095 13.8204 316.83 12.6531C317.564 11.4886 317.904 10.1076 317.904 8.56H315.904ZM302.424 4C302.203 4 301.854 4.05588 301.567 4.34289C301.28 4.62991 301.224 4.97919 301.224 5.2H303.224C303.224 5.28748 303.202 5.53676 302.981 5.75711C302.761 5.97745 302.512 6 302.424 6V4ZM301.224 5.2V12.6H303.224V5.2H301.224ZM301.224 12.6C301.224 12.8208 301.28 13.1701 301.567 13.4571C301.854 13.7441 302.203 13.8 302.424 13.8V11.8C302.512 11.8 302.761 11.8225 302.981 12.0429C303.202 12.2632 303.224 12.5125 303.224 12.6H301.224ZM302.424 13.8H307.824V11.8H302.424V13.8ZM307.824 13.8C309.388 13.8 310.749 13.4306 311.784 12.5682L310.504 11.0318C309.939 11.5027 309.087 11.8 307.824 11.8V13.8ZM311.787 12.5662C312.867 11.6601 313.384 10.4183 313.384 8.96H311.384C311.384 9.90174 311.074 10.5533 310.501 11.0338L311.787 12.5662ZM313.384 8.96C313.384 7.48302 312.872 6.22448 311.787 5.31381L310.501 6.84619C311.069 7.32218 311.384 7.98364 311.384 8.96H313.384ZM311.813 5.33671C310.778 4.40523 309.405 4 307.824 4V6C309.069 6 309.91 6.31477 310.475 6.82329L311.813 5.33671ZM307.824 4H302.424V6H307.824V4ZM308.144 25.96C309.714 25.96 311.075 25.5332 312.106 24.5711L310.742 23.1089C310.173 23.6401 309.348 23.96 308.144 23.96V25.96ZM312.094 24.5821C313.163 23.6168 313.664 22.3164 313.664 20.8H311.664C311.664 21.8436 311.338 22.5699 310.754 23.0979L312.094 24.5821ZM313.664 20.8C313.664 19.2651 313.168 17.9525 312.081 17.0059L310.767 18.5141C311.334 19.0075 311.664 19.7216 311.664 20.8H313.664ZM312.094 17.0179C311.038 16.0642 309.656 15.64 308.064 15.64V17.64C309.299 17.64 310.156 17.9625 310.754 18.5021L312.094 17.0179ZM308.064 15.64H302.424V17.64H308.064V15.64ZM302.424 15.64C302.203 15.64 301.854 15.6959 301.567 15.9829C301.28 16.2699 301.224 16.6192 301.224 16.84H303.224C303.224 16.9275 303.202 17.1768 302.981 17.3971C302.761 17.6175 302.512 17.64 302.424 17.64V15.64ZM301.224 16.84V24.76H303.224V16.84H301.224ZM301.224 24.76C301.224 24.9808 301.28 25.3301 301.567 25.6171C301.854 25.9041 302.203 25.96 302.424 25.96V23.96C302.512 23.96 302.761 23.9825 302.981 24.2029C303.202 24.4232 303.224 24.6725 303.224 24.76H301.224ZM302.424 25.96H308.144V23.96H302.424V25.96ZM339.979 28.6L340.937 28.3126L340.934 28.3053L339.979 28.6ZM338.659 24.32L339.614 24.0253L339.59 23.9465L339.553 23.8728L338.659 24.32ZM327.699 24.32L326.804 23.8728L326.767 23.9465L326.743 24.0253L327.699 24.32ZM326.379 28.6L325.423 28.3053L325.421 28.3127L326.379 28.6ZM321.499 28.88L320.699 29.48L320.741 29.5369L320.792 29.5871L321.499 28.88ZM321.459 28.44L320.507 28.1344L320.502 28.1497L320.497 28.1653L321.459 28.44ZM330.139 1.4L331.091 1.70564L331.094 1.69652L331.097 1.68735L330.139 1.4ZM336.179 1.4L335.221 1.68735L335.224 1.69716L335.227 1.70692L336.179 1.4ZM344.899 28.44L343.947 28.7469L343.97 28.8192L344.004 28.8872L344.899 28.44ZM328.939 20.28L327.982 19.9887L327.963 20.0512L327.952 20.1156L328.939 20.28ZM337.379 20.28L336.423 20.5739L336.426 20.5851L336.43 20.5962L337.379 20.28ZM333.259 6.88L332.289 7.12253L332.295 7.1484L332.303 7.17388L333.259 6.88ZM333.019 6.88L333.975 7.17127L333.983 7.14707L333.989 7.12253L333.019 6.88ZM340.499 28C340.536 28 340.655 28.0121 340.778 28.1074C340.898 28.1996 340.933 28.3003 340.937 28.3127L339.021 28.8873C339.105 29.1664 339.266 29.4671 339.559 29.6926C339.856 29.9212 340.195 30 340.499 30V28ZM340.934 28.3053L339.614 24.0253L337.703 24.6147L339.023 28.8947L340.934 28.3053ZM339.553 23.8728C339.423 23.6134 339.088 23.16 338.459 23.16V25.16C338.256 25.16 338.075 25.0858 337.944 24.9809C337.829 24.8887 337.778 24.7953 337.764 24.7672L339.553 23.8728ZM338.459 23.16H327.899V25.16H338.459V23.16ZM327.899 23.16C327.269 23.16 326.934 23.6134 326.804 23.8728L328.593 24.7672C328.579 24.7953 328.529 24.8887 328.413 24.9809C328.282 25.0858 328.102 25.16 327.899 25.16V23.16ZM326.743 24.0253L325.423 28.3053L327.334 28.8947L328.654 24.6147L326.743 24.0253ZM325.421 28.3127C325.425 28.3003 325.459 28.1996 325.579 28.1074C325.703 28.0121 325.821 28 325.859 28V30C326.163 30 326.501 29.9212 326.798 29.6926C327.092 29.4671 327.253 29.1664 327.337 28.8873L325.421 28.3127ZM325.859 28H321.859V30H325.859V28ZM321.859 28C321.859 28 321.9 27.9997 321.965 28.0213C322.035 28.0446 322.124 28.0907 322.206 28.1729L320.792 29.5871C321.125 29.9208 321.545 30 321.859 30V28ZM322.299 28.28C322.381 28.3903 322.416 28.508 322.425 28.5995C322.432 28.6812 322.417 28.7252 322.42 28.7147L320.497 28.1653C320.399 28.5091 320.357 29.0239 320.699 29.48L322.299 28.28ZM322.411 28.7456L331.091 1.70564L329.187 1.09435L320.507 28.1344L322.411 28.7456ZM331.097 1.68735C331.093 1.69971 331.058 1.80044 330.938 1.89262C330.815 1.98785 330.696 2 330.659 2V-1.90735e-06C330.355 -1.90735e-06 330.016 0.0788078 329.719 0.307374C329.426 0.532894 329.265 0.833618 329.181 1.11265L331.097 1.68735ZM330.659 2H335.659V-1.90735e-06H330.659V2ZM335.659 2C335.621 2 335.503 1.98786 335.379 1.89262C335.259 1.80044 335.225 1.69971 335.221 1.68735L337.137 1.11265C337.053 0.833619 336.892 0.532894 336.598 0.307373C336.301 0.0788069 335.963 -1.90735e-06 335.659 -1.90735e-06V2ZM335.227 1.70692L343.947 28.7469L345.85 28.1331L337.13 1.09308L335.227 1.70692ZM344.004 28.8872C343.942 28.7626 343.939 28.6646 343.939 28.64H345.939C345.939 28.4554 345.909 28.2241 345.793 27.9928L344.004 28.8872ZM343.939 28.64C343.939 28.547 343.977 28.3149 344.196 28.136C344.376 27.9886 344.535 28 344.499 28V30C344.756 30 345.135 29.9514 345.462 29.684C345.827 29.3851 345.939 28.973 345.939 28.64H343.939ZM344.499 28H340.499V30H344.499V28ZM327.952 20.1156C327.924 20.2858 327.889 20.6586 328.127 21.0147C328.405 21.4328 328.839 21.52 329.099 21.52V19.52C329.225 19.52 329.565 19.5672 329.791 19.9053C329.975 20.1814 329.927 20.4342 329.925 20.4444L327.952 20.1156ZM329.099 21.52H337.219V19.52H329.099V21.52ZM337.219 21.52C337.408 21.52 337.901 21.4786 338.211 21.0147C338.503 20.5764 338.381 20.1242 338.327 19.9638L336.43 20.5962C336.43 20.5958 336.308 20.2636 336.547 19.9053C336.803 19.5214 337.189 19.52 337.219 19.52V21.52ZM338.335 19.9861L334.215 6.58611L332.303 7.17388L336.423 20.5739L338.335 19.9861ZM334.229 6.63747C334.202 6.52805 334.144 6.3405 334.009 6.16C333.852 5.95135 333.558 5.72 333.139 5.72V7.72C332.773 7.72 332.525 7.51531 332.409 7.36C332.313 7.23284 332.289 7.12528 332.289 7.12253L334.229 6.63747ZM333.139 5.72C332.719 5.72 332.425 5.95135 332.269 6.16C332.133 6.3405 332.076 6.52805 332.049 6.63747L333.989 7.12253C333.988 7.12528 333.964 7.23284 333.869 7.36C333.752 7.51531 333.505 7.72 333.139 7.72V5.72ZM332.062 6.58872L327.982 19.9887L329.895 20.5713L333.975 7.17127L332.062 6.58872ZM353.91 28.24L353.456 29.1312L353.462 29.1345L353.469 29.1377L353.91 28.24ZM350.51 25.12L351.367 24.6055L350.51 25.12ZM349.43 17.48L350.137 18.1871V18.1871L349.43 17.48ZM353.79 17.48L352.99 18.08L353.075 18.1943L353.19 18.28L353.79 17.48ZM355.31 24L354.603 24.7071L354.613 24.7175L354.624 24.7276L355.31 24ZM362.71 24L363.385 24.7372L363.391 24.7321L363.396 24.727L362.71 24ZM364.27 1.16L364.977 1.86711V1.8671L364.27 1.16ZM368.59 1.16L367.79 1.75999L367.875 1.87428L367.99 1.96L368.59 1.16ZM367.51 25.12L366.66 24.5931L366.656 24.5993L366.652 24.6055L367.51 25.12ZM364.07 28.24L364.51 29.1377L364.517 29.1344L364.07 28.24ZM359.03 28.32C357.207 28.32 355.656 27.9833 354.35 27.3423L353.469 29.1377C355.097 29.9367 356.959 30.32 359.03 30.32V28.32ZM354.363 27.3488C353.054 26.6821 352.065 25.7683 351.367 24.6055L349.652 25.6345C350.555 27.1384 351.832 28.3045 353.456 29.1312L354.363 27.3488ZM351.367 24.6055C350.672 23.4473 350.31 22.0832 350.31 20.48H348.31C348.31 22.3968 348.747 24.126 349.652 25.6345L351.367 24.6055ZM350.31 20.48V17.8H348.31V20.48H350.31ZM350.31 17.8C350.31 17.8332 350.305 17.8948 350.276 17.9711C350.246 18.0505 350.198 18.1254 350.137 18.1871L348.723 16.7729C348.422 17.0736 348.31 17.4524 348.31 17.8H350.31ZM350.137 18.1871C350.116 18.2078 350.073 18.2438 350.006 18.2738C349.936 18.3049 349.861 18.32 349.79 18.32V16.32C349.355 16.32 348.99 16.5055 348.723 16.7729L350.137 18.1871ZM349.79 18.32H353.47V16.32H349.79V18.32ZM353.47 18.32C353.4 18.32 353.304 18.305 353.202 18.2544C353.101 18.2038 353.032 18.136 352.99 18.08L354.59 16.88C354.321 16.5215 353.918 16.32 353.47 16.32V18.32ZM353.19 18.28C353.134 18.238 353.066 18.1684 353.015 18.0672C352.965 17.966 352.95 17.8701 352.95 17.8H354.95C354.95 17.3519 354.748 16.9489 354.39 16.68L353.19 18.28ZM352.95 17.8V20.48H354.95V17.8H352.95ZM352.95 20.48C352.95 22.1496 353.485 23.5891 354.603 24.7071L356.017 23.2929C355.321 22.5975 354.95 21.6904 354.95 20.48H352.95ZM354.624 24.7276C355.779 25.8173 357.284 26.32 359.03 26.32V24.32C357.682 24.32 356.707 23.9427 355.996 23.2724L354.624 24.7276ZM359.03 26.32C360.734 26.32 362.214 25.811 363.385 24.7372L362.034 23.2628C361.285 23.949 360.312 24.32 359.03 24.32V26.32ZM363.396 24.727C364.576 23.6132 365.15 22.1674 365.15 20.48H363.15C363.15 21.6726 362.764 22.5734 362.023 23.273L363.396 24.727ZM365.15 20.48V1.48H363.15V20.48H365.15ZM365.15 1.48C365.15 1.5132 365.145 1.57483 365.116 1.65112C365.086 1.7305 365.038 1.80545 364.977 1.86711L363.563 0.452891C363.262 0.753626 363.15 1.13241 363.15 1.48H365.15ZM364.977 1.8671C364.956 1.88781 364.913 1.92379 364.846 1.95381C364.776 1.98486 364.701 2 364.63 2V-1.90735e-06C364.195 -1.90735e-06 363.83 0.185536 363.563 0.452894L364.977 1.8671ZM364.63 2H368.27V-1.90735e-06H364.63V2ZM368.27 2C368.2 2 368.104 1.98502 368.002 1.93442C367.901 1.88383 367.832 1.81604 367.79 1.75999L369.39 0.560004C369.121 0.201526 368.718 -1.90735e-06 368.27 -1.90735e-06V2ZM367.99 1.96C367.934 1.91796 367.866 1.8484 367.815 1.74721C367.765 1.64602 367.75 1.55005 367.75 1.48H369.75C369.75 1.03191 369.548 0.628854 369.19 0.36L367.99 1.96ZM367.75 1.48V20.48H369.75V1.48H367.75ZM367.75 20.48C367.75 22.0771 367.377 23.4367 366.66 24.5931L368.36 25.6469C369.296 24.1366 369.75 22.4029 369.75 20.48H367.75ZM366.652 24.6055C365.957 25.7636 364.959 26.6774 363.622 27.3456L364.517 29.1344C366.167 28.3093 367.462 27.143 368.367 25.6345L366.652 24.6055ZM363.629 27.3423C362.32 27.9851 360.794 28.32 359.03 28.32V30.32C361.052 30.32 362.886 29.9349 364.51 29.1377L363.629 27.3423ZM380.4 28.2L379.929 29.082L379.941 29.0882L380.4 28.2ZM376.8 24.72L375.925 25.2044L375.932 25.2161L376.8 24.72ZM376.84 5.36L377.705 5.86291L377.709 5.85614L376.84 5.36ZM380.4 1.92L380.866 2.80493L380.872 2.80193L380.4 1.92ZM391.04 1.92L390.563 2.79848L390.572 2.80344L390.581 2.80822L391.04 1.92ZM394.64 5.36L393.772 5.85615L393.776 5.86289L394.64 5.36ZM394.64 24.72L395.509 25.2161V25.2161L394.64 24.72ZM391.04 28.2L391.506 29.0849L391.512 29.0819L391.04 28.2ZM389.76 23.84L389.044 23.1421L389.76 23.84ZM389.76 6.24L389.044 6.93786V6.93786L389.76 6.24ZM381.72 6.24L382.437 6.93786V6.93786L381.72 6.24ZM385.72 28.4C383.856 28.4 382.245 28.0281 380.86 27.3118L379.941 29.0882C381.649 29.9719 383.584 30.4 385.72 30.4V28.4ZM380.872 27.3181C379.488 26.5783 378.427 25.5505 377.669 24.2239L375.932 25.2161C376.881 26.8762 378.22 28.1684 379.929 29.0819L380.872 27.3181ZM377.675 24.2357C376.942 22.9103 376.56 21.3613 376.56 19.56H374.56C374.56 21.652 375.006 23.543 375.925 25.2043L377.675 24.2357ZM376.56 19.56V10.44H374.56V19.56H376.56ZM376.56 10.44C376.56 8.67298 376.951 7.1576 377.705 5.86289L375.976 4.85711C375.023 6.49573 374.56 8.36702 374.56 10.44H376.56ZM377.709 5.85614C378.468 4.52783 379.515 3.51614 380.866 2.80492L379.935 1.03508C378.246 1.92385 376.92 3.2055 375.972 4.86386L377.709 5.85614ZM380.872 2.80193C382.254 2.06308 383.861 1.68 385.72 1.68V-0.32C383.579 -0.32 381.64 0.12359 379.929 1.03807L380.872 2.80193ZM385.72 1.68C387.609 1.68 389.212 2.06423 390.563 2.79848L391.518 1.04151C389.828 0.12244 387.885 -0.32 385.72 -0.32V1.68ZM390.581 2.80822C391.959 3.52083 393.016 4.53236 393.772 5.85614L395.509 4.86386C394.558 3.20097 393.215 1.91917 391.5 1.03178L390.581 2.80822ZM393.776 5.86289C394.529 7.1576 394.92 8.67298 394.92 10.44H396.92C396.92 8.36702 396.458 6.49573 395.505 4.85711L393.776 5.86289ZM394.92 10.44V19.56H396.92V10.44H394.92ZM394.92 19.56C394.92 21.356 394.528 22.9007 393.772 24.2239L395.509 25.2161C396.459 23.5526 396.92 21.6573 396.92 19.56H394.92ZM393.772 24.2239C393.014 25.5505 391.953 26.5783 390.569 27.3181L391.512 29.0819C393.221 28.1684 394.56 26.8762 395.509 25.2161L393.772 24.2239ZM390.575 27.3151C389.222 28.027 387.614 28.4 385.72 28.4V30.4C387.88 30.4 389.819 29.973 391.506 29.0849L390.575 27.3151ZM385.72 26.4C387.624 26.4 389.245 25.8017 390.477 24.5379L389.044 23.1421C388.249 23.9583 387.177 24.4 385.72 24.4V26.4ZM390.477 24.5379C391.703 23.2787 392.28 21.6383 392.28 19.72H390.28C390.28 21.215 389.844 22.3213 389.044 23.1421L390.477 24.5379ZM392.28 19.72V10.4H390.28V19.72H392.28ZM392.28 10.4C392.28 8.45988 391.706 6.80423 390.477 5.54213L389.044 6.93786C389.841 7.75577 390.28 8.87346 390.28 10.4H392.28ZM390.477 5.54214C389.245 4.2783 387.624 3.68 385.72 3.68V5.68C387.177 5.68 388.249 6.12169 389.044 6.93786L390.477 5.54214ZM385.72 3.68C383.838 3.68 382.232 4.28154 381.004 5.54214L382.437 6.93786C383.235 6.11846 384.296 5.68 385.72 5.68V3.68ZM381.004 5.54213C379.774 6.80423 379.2 8.45988 379.2 10.4H381.2C381.2 8.87346 381.64 7.75577 382.437 6.93786L381.004 5.54213ZM379.2 10.4V19.72H381.2V10.4H379.2ZM379.2 19.72C379.2 21.6383 379.777 23.2787 381.004 24.5379L382.437 23.1421C381.637 22.3213 381.2 21.215 381.2 19.72H379.2ZM381.004 24.5379C382.232 25.7985 383.838 26.4 385.72 26.4V24.4C384.296 24.4 383.235 23.9615 382.437 23.1421L381.004 24.5379Z" fill="#0058A8"/>
</svg>
