<svg width="100" height="36" viewBox="0 0 100 36" fill="none" xmlns="http://www.w3.org/2000/svg">
<path d="M23.4474 9.23885C24.3796 8.91448 25.3705 8.89079 26.3406 8.79785C26.3682 9.07666 26.4078 9.35364 26.4285 9.63245C26.0195 9.67861 25.6117 9.72842 25.205 9.78188C25.0569 9.81063 24.9185 9.87994 24.8036 9.9829C24.6887 10.0859 24.6014 10.2188 24.5502 10.3686C24.4127 10.7937 24.3754 11.2478 24.4417 11.6916C24.5278 12.5098 24.645 13.3316 24.5967 14.1571C24.5264 15.3765 24.2147 16.5666 23.6817 17.6504C23.2016 18.6496 22.6035 19.5804 21.9017 20.4202C20.8678 21.6958 19.6615 22.8037 18.4691 23.9007C17.942 24.3372 17.4445 24.8121 16.9802 25.3221C16.3751 26.0437 15.9666 26.9254 15.7981 27.8733C15.7107 28.3267 15.6651 28.7881 15.662 29.2509C15.6379 29.9707 15.5603 30.6868 15.5638 31.4084C15.5563 31.9023 15.573 32.3961 15.6137 32.8881C15.6248 33.1575 15.6676 33.4244 15.7413 33.6826C15.8207 33.9421 15.9515 34.1807 16.125 34.3824C16.2986 34.5842 16.5108 34.7444 16.7476 34.8525C17.5006 35.0876 18.2985 35.0931 19.0705 35.1022C19.0705 35.3117 19.0705 35.5195 19.0705 35.729C15.5827 35.729 12.095 35.729 8.60724 35.729C8.60724 35.5195 8.60724 35.3081 8.60724 35.0985C9.23179 35.1117 9.85623 35.0671 10.4735 34.9655C10.7383 34.933 10.9934 34.8404 11.2213 34.694C11.6072 34.3882 11.885 33.9545 12.0105 33.4621C12.1005 33.0532 12.1398 32.6336 12.1277 32.2139C12.1277 31.4157 12.1381 30.6176 12.1467 29.8194C12.1694 28.9857 12.0847 28.1526 11.8951 27.343C11.7572 26.9076 11.536 26.5069 11.2454 26.1658C10.8095 25.6191 10.2925 25.1508 9.82037 24.6388C9.0501 23.8114 8.16266 23.1172 7.34242 22.3445C7.00812 22.0347 6.69622 21.6995 6.38432 21.3678C5.41289 20.3341 4.68301 19.0749 4.25273 17.6905C4.03437 16.9354 3.92629 16.1494 3.93222 15.3598C3.93222 14.773 3.96496 14.179 3.84951 13.6013C3.80372 13.3382 3.70305 13.0892 3.55484 12.8724C3.48318 12.7728 3.39173 12.6909 3.28694 12.6327C3.18214 12.5744 3.06654 12.5412 2.94828 12.5353C2.53471 12.5353 2.12115 12.5353 1.70758 12.5353C1.70758 12.2559 1.70758 11.9771 1.70758 11.6989C2.58469 11.6752 3.47041 11.5987 4.34234 11.7426C4.72642 11.8007 5.10104 11.9148 5.45552 12.0816C5.4986 12.098 5.55547 12.1381 5.52617 12.1964C5.45168 12.3588 5.39391 12.5293 5.35385 12.7048C5.22613 13.3479 5.17289 14.0051 5.19532 14.6619C5.21151 15.8971 5.46293 17.1161 5.93457 18.2463C6.15558 18.76 6.4401 19.2404 6.78066 19.6749C7.47671 20.4584 8.27448 21.1333 9.15005 21.6794C10.6022 22.5291 11.8952 23.6525 12.9652 24.9941V16.2472C12.9835 15.9051 12.9372 15.5626 12.8291 15.2395C12.7892 15.1323 12.729 15.0349 12.6523 14.9531C12.5755 14.8713 12.4838 14.807 12.3828 14.7639C11.9941 14.6288 11.585 14.572 11.1765 14.5963C11.1765 14.391 11.1765 14.1851 11.1765 13.9785H16.7614C16.7614 14.1851 16.7614 14.391 16.7614 14.5963C16.3428 14.5715 15.9237 14.6334 15.5276 14.7785C15.1829 14.9243 15.0296 15.3252 14.9917 15.6805C14.9486 16.127 14.9727 16.5771 14.9658 17.0235V23.8825C15.9268 23.2578 16.8478 22.5669 17.7229 21.8142C18.4708 21.171 19.1704 20.4694 19.8769 19.777C20.6145 19.1068 21.2844 18.3574 21.8758 17.5411C22.2628 17.0604 22.5804 16.5218 22.8184 15.9429C23.2647 14.8168 23.3888 13.5868 23.4508 12.3786C23.4853 11.3308 23.4732 10.283 23.4474 9.23885Z" fill="white"/>
<path d="M17.1525 33.7883V32.9009H17.4972C17.5629 32.8973 17.6287 32.9053 17.6919 32.9246C17.7338 32.9388 17.7689 32.9694 17.7901 33.0102C17.8149 33.0515 17.8275 33.0998 17.8263 33.1487C17.8291 33.2095 17.8093 33.269 17.7712 33.3145C17.7246 33.3622 17.6635 33.3907 17.5988 33.3947C17.6318 33.4159 17.6619 33.4416 17.6884 33.4712C17.7253 33.5155 17.7576 33.5638 17.7849 33.6152L17.8883 33.7883H17.685L17.5626 33.5952C17.536 33.5491 17.506 33.5052 17.473 33.464C17.4598 33.4472 17.4425 33.4346 17.4231 33.4275C17.3951 33.4189 17.366 33.4152 17.3369 33.4166H17.3248V33.781L17.1525 33.7883ZM17.3248 33.2763H17.4489C17.5004 33.2797 17.552 33.2754 17.6023 33.2635C17.6214 33.2577 17.638 33.2447 17.6488 33.2271C17.6609 33.2076 17.6669 33.1847 17.666 33.1615C17.6676 33.135 17.6596 33.1089 17.6436 33.0886C17.6267 33.0697 17.6042 33.0575 17.5799 33.0539C17.5661 33.0539 17.5247 33.0539 17.4558 33.0539H17.3248V33.2763Z" fill="white"/>
<path d="M18.2194 33.3783C18.2194 33.5333 18.1759 33.6848 18.0945 33.8136C18.0131 33.9425 17.8974 34.0429 17.762 34.1022C17.6266 34.1615 17.4776 34.1771 17.3338 34.1468C17.1901 34.1166 17.0581 34.042 16.9545 33.9324C16.8508 33.8228 16.7803 33.6832 16.7517 33.5312C16.7231 33.3792 16.7377 33.2216 16.7938 33.0784C16.8499 32.9353 16.9449 32.8129 17.0667 32.7268C17.1886 32.6407 17.3318 32.5947 17.4784 32.5947C17.5758 32.5945 17.6722 32.6146 17.7622 32.6539C17.8522 32.6932 17.934 32.7509 18.0029 32.8237C18.0717 32.8965 18.1263 32.983 18.1634 33.0782C18.2006 33.1733 18.2196 33.2753 18.2194 33.3783ZM17.4784 34.0398C17.6021 34.0398 17.7231 34.001 17.8259 33.9283C17.9288 33.8556 18.009 33.7523 18.0563 33.6314C18.1036 33.5106 18.116 33.3776 18.0919 33.2492C18.0678 33.1209 18.0082 33.0031 17.9207 32.9106C17.8332 32.8181 17.7218 32.7551 17.6004 32.7295C17.4791 32.704 17.3533 32.7171 17.239 32.7672C17.1247 32.8172 17.027 32.902 16.9583 33.0108C16.8896 33.1196 16.8529 33.2475 16.8529 33.3783C16.8533 33.5536 16.9194 33.7216 17.0366 33.8455C17.1538 33.9695 17.3126 34.0393 17.4784 34.0398Z" fill="white"/>
<path d="M6.61361 6.48181C6.61361 6.48181 5.37808 6.33785 5.10409 5.18253C4.95089 4.42914 4.98954 3.64624 5.2161 2.91382C5.2161 2.91382 7.88188 4.13838 6.61361 6.48181Z" fill="white"/>
<path d="M9.15863 11.4711C9.15863 11.4711 7.91793 11.5404 7.47335 10.447C7.20541 9.73151 7.12273 8.95341 7.23382 8.19287C7.23382 8.19287 10.0512 8.94365 9.15863 11.4711Z" fill="white"/>
<path d="M17.5472 8.38058C17.5472 8.38058 16.4995 7.18699 17.1302 5.87132C17.5639 5.03488 18.2003 4.33552 18.974 3.84497C18.974 3.84497 20.53 7.27446 17.5472 8.38058Z" fill="white"/>
<path d="M12.1744 7.69541C12.1744 7.69541 10.9681 7.12687 11.0577 5.87315C11.1357 5.06349 11.4152 4.29013 11.8676 3.63177C11.8676 3.63177 14.1715 5.77293 12.1744 7.69541Z" fill="white"/>
<path d="M15.6534 5.39756C15.6534 5.39756 14.1715 4.9584 14.0577 3.48784C14.0129 2.53489 14.2086 1.58648 14.6247 0.739868C14.6247 0.739868 17.6471 2.80449 15.6534 5.39756Z" fill="white"/>
<path d="M22.181 8.1911C22.181 8.1911 23.3459 8.64666 24.0765 7.74282C24.5333 7.14298 24.8307 6.4253 24.9381 5.66361C24.9381 5.66361 22.038 5.49597 22.181 8.1911Z" fill="white"/>
<path d="M25.0242 12.5773C25.0242 12.5773 25.8996 13.0164 26.5285 12.3677C26.9218 11.9352 27.1995 11.4001 27.3332 10.817C27.3332 10.817 25.0914 10.4744 25.0242 12.5773Z" fill="white"/>
<path d="M20.4612 5.03306C20.4612 5.03306 21.3848 5.35378 21.9345 4.62305C22.2751 4.13903 22.488 3.56802 22.5514 2.96844C22.5514 2.96844 20.2751 2.92835 20.4612 5.03306Z" fill="white"/>
<path d="M15.4535 12.9672C15.4535 12.9672 13.4133 12.3239 13.2978 10.314C13.1824 8.30403 14.1594 6.58746 14.1594 6.58746C14.1594 6.58746 18.2916 9.49761 15.4535 12.9672Z" fill="white"/>
<path d="M8.70901 19.8371C8.70901 19.8371 6.89276 19.8116 6.34306 18.1661C5.79336 16.5206 6.20521 14.8459 6.20521 14.8459C6.20521 14.8459 10.2599 16.229 8.70901 19.8371Z" fill="white"/>
<path d="M17.9834 16.9215C17.9834 16.9215 16.8857 15.7516 17.4854 14.3976C17.8972 13.5363 18.518 12.8061 19.2844 12.282C19.2844 12.282 20.9663 15.6933 17.9834 16.9215Z" fill="white"/>
<path d="M12.3675 22.4794C12.3675 22.4794 10.9269 22.9495 10.098 21.7997C9.58308 21.0412 9.26898 20.151 9.18817 19.2212C9.18817 19.2212 12.7121 19.2267 12.3675 22.4794Z" fill="white"/>
<path d="M7.67507 24.1304C7.67507 24.1304 6.70319 25.2985 5.45732 24.79C4.6645 24.4349 3.97523 23.8632 3.46014 23.1336C3.46014 23.1336 6.38612 21.2385 7.67507 24.1304Z" fill="white"/>
<path d="M5.09027 21.1692C5.09027 21.1692 4.15975 22.3719 2.89837 21.9145C2.09269 21.59 1.38275 21.0455 0.840881 20.3364C0.840881 20.3364 3.71172 18.3264 5.09027 21.1692Z" fill="white"/>
<path d="M5.32639 10.7258C5.32639 10.7258 4.08397 10.7422 3.67902 9.63249C3.43932 8.9044 3.38757 8.12189 3.5291 7.3656C3.5291 7.3656 6.31722 8.23482 5.32639 10.7258Z" fill="white"/>
<path d="M2.77951 15.3963C2.77951 15.3963 1.80246 15.9703 1.03392 15.2723C0.550774 14.8042 0.193959 14.2086 0 13.5467C0 13.5467 2.56066 12.9818 2.77951 15.3963Z" fill="white"/>
<path d="M2.82588 11.0265C2.82588 11.0265 1.95394 11.2233 1.52487 10.4999C1.26076 10.0242 1.12156 9.48253 1.12164 8.93091C1.12164 8.93091 3.19464 9.13318 2.82588 11.0265Z" fill="white"/>
<path d="M6.94275 12.1837C6.94284 12.9522 7.13612 13.7068 7.50279 14.3704C7.56885 14.4821 7.64755 14.5849 7.73714 14.6765C7.82293 14.7194 7.89881 14.7816 7.95943 14.8587C8.37144 15.1083 8.85334 15.1967 9.32076 15.1084C9.83771 12.4643 6.94275 12.1837 6.94275 12.1837Z" fill="white"/>
<path d="M20.9608 13.4993C20.9608 13.4993 20.113 12.5353 20.6248 11.4711C20.9745 10.7942 21.4884 10.2281 22.1136 9.83105C22.1136 9.83105 23.3699 12.6063 20.9608 13.4993Z" fill="white"/>
<path d="M23.5561 19.7915C23.5561 19.7915 23.6112 18.618 24.5711 18.2991C25.1989 18.1143 25.8618 18.1086 26.4924 18.2827C26.4924 18.2827 25.5964 20.863 23.5561 19.7915Z" fill="white"/>
<path d="M9.98593 6.68765C9.98593 6.68765 8.38164 6.58013 7.96635 5.10046C7.72565 4.13816 7.7322 3.12536 7.9853 2.16663C7.9853 2.16663 11.4954 3.58434 9.98593 6.68765Z" fill="white"/>
<path d="M10.9354 12.5809C10.9354 12.5809 9.79985 12.0342 9.87739 10.8515C9.9484 10.0821 10.2125 9.34662 10.6425 8.72131C10.6425 8.72131 12.8241 10.7622 10.9354 12.5809Z" fill="white"/>
<path d="M3.52554 18.5378C3.52554 18.5378 2.47956 19.1884 1.63003 18.4522C1.09385 17.9577 0.691794 17.3212 0.465149 16.608C0.465149 16.608 3.2257 15.9229 3.52554 18.5378Z" fill="white"/>
<path d="M19.3583 18.0567C19.3583 18.0567 18.9447 16.7429 19.8597 15.9739C20.4666 15.4951 21.1848 15.1992 21.9379 15.1174C21.9379 15.1174 22.012 18.3428 19.3583 18.0567Z" fill="white"/>
<path d="M18.0849 11.7262C18.0849 11.7262 17.3078 10.2885 18.2124 9.15685C18.8167 8.44649 19.5904 7.92096 20.4526 7.63525C20.4526 7.63525 21.2608 11.4037 18.0849 11.7262Z" fill="white"/>
<path d="M25.1018 17.5775C25.1018 17.5775 24.3246 16.1361 25.2276 15.0063C25.8347 14.296 26.6115 13.7717 27.4763 13.4883C27.4763 13.4883 28.2776 17.2531 25.1018 17.5775Z" fill="white"/>
<path d="M11.3439 18.4212C11.3439 18.4212 10.2582 18.1642 10.1376 17.1237C10.0753 16.4478 10.1866 15.7666 10.4599 15.152C10.4599 15.152 12.7017 16.5078 11.3439 18.4212Z" fill="white"/>
<path d="M15.8345 21.5683C15.8345 21.5683 15.3055 20.5369 15.969 19.746C16.4137 19.242 16.9776 18.8727 17.6025 18.6763C17.6025 18.6763 18.1074 21.3605 15.8345 21.5683Z" fill="white"/>
<path d="M17.7626 2.90283C17.7626 2.90283 17.3025 2.17393 17.7471 1.5252C18.0465 1.11855 18.4433 0.803974 18.8964 0.614075C18.8964 0.614075 19.4461 2.58576 17.7626 2.90283Z" fill="white"/>
<path d="M12.6292 2.86276C12.6292 2.86276 13.2892 2.10653 12.8877 1.27558C12.6121 0.748351 12.2089 0.308112 11.7194 0C11.7194 0 10.7406 2.1703 12.6292 2.86276Z" fill="white"/>
<path d="M36.1198 23.5837L34.2812 25.4351C33.0301 24.0368 31.6234 23.3383 30.0611 23.3395C29.4429 23.3301 28.8292 23.452 28.2564 23.6979C27.6835 23.9438 27.1631 24.3087 26.7259 24.771C26.2888 25.2333 25.9437 25.7836 25.7112 26.3894C25.4787 26.9952 25.3634 27.6441 25.3723 28.2978C25.3561 29.202 25.5628 30.095 25.9719 30.8891C26.3675 31.64 26.956 32.2572 27.6693 32.6694C28.4151 33.106 29.2552 33.3308 30.1076 33.3218C30.8276 33.331 31.5411 33.1762 32.1995 32.8681C32.8302 32.5692 33.5241 32.0225 34.2812 31.228L36.0629 33.1924C35.0428 34.2469 34.079 34.9758 33.1714 35.3791C32.1871 35.802 31.132 36.0097 30.0697 35.9896C27.9237 35.9896 26.1672 35.2704 24.8002 33.832C23.4331 32.3937 22.7496 30.5489 22.7496 28.2978C22.7254 26.9388 23.048 25.598 23.6835 24.4164C24.3225 23.2644 25.2473 22.3191 26.3579 21.683C27.5013 20.9989 28.7939 20.6427 30.1076 20.6498C31.2509 20.6536 32.3801 20.9175 33.4184 21.4238C34.4567 21.93 35.3798 22.6666 36.125 23.5837H36.1198Z" fill="white"/>
<path d="M42.6299 21.0161H45.2957L50.6066 35.6179H47.8753L46.7914 32.6111H41.1617L40.0382 35.6179H37.3138L42.6299 21.0161ZM43.9791 24.8866L42.1267 29.8996H45.8212L43.9791 24.8866Z" fill="white"/>
<path d="M52.6277 21.0161H55.4159C56.9242 21.0161 58.0116 21.1637 58.6779 21.4589C59.3348 21.7439 59.8876 22.2448 60.2546 22.8876C60.6547 23.6037 60.8548 24.4251 60.8319 25.2565C60.8319 26.277 60.5803 27.1237 60.0771 27.7967C59.5531 28.4868 58.8339 28.9811 58.0248 29.2072C57.5182 29.3602 56.5951 29.4368 55.2556 29.4368V35.6179H52.6277V21.0161ZM55.2556 26.7234H56.0965C56.7548 26.7234 57.2143 26.6736 57.4751 26.574C57.7217 26.4835 57.934 26.3109 58.0799 26.082C58.2324 25.8349 58.3094 25.5442 58.3005 25.2492C58.3157 25.003 58.2657 24.7571 58.1561 24.5392C58.0465 24.3213 57.8817 24.14 57.6801 24.0156C57.3803 23.8224 56.8237 23.7258 56.0104 23.7258H55.2677L55.2556 26.7234Z" fill="white"/>
<path d="M70.6506 23.0024L68.7034 24.8247C68.0141 23.8188 67.3185 23.3165 66.6166 23.3177C66.3101 23.3045 66.0093 23.4079 65.7688 23.6092C65.6702 23.6859 65.5893 23.7853 65.5322 23.8999C65.4752 24.0145 65.4436 24.1413 65.4397 24.2707C65.4428 24.5235 65.5259 24.768 65.6758 24.965C65.8894 25.2566 66.5322 25.8816 67.604 26.8401C68.6069 27.7269 69.2146 28.2864 69.4271 28.5184C69.8932 28.99 70.2766 29.5453 70.5593 30.1584C70.7894 30.6927 70.907 31.2734 70.9039 31.8604C70.9186 32.4148 70.8214 32.9662 70.6187 33.4777C70.4161 33.9893 70.1127 34.4493 69.7287 34.8271C68.9452 35.6094 67.9245 36 66.6666 35.9988C65.7568 36.021 64.8615 35.7551 64.0956 35.2352C63.365 34.725 62.74 33.9244 62.2208 32.8335L64.4299 31.4231C65.095 32.7132 65.8596 33.3583 66.7235 33.3583C67.1379 33.372 67.5427 33.2242 67.8608 32.9428C68.0011 32.8291 68.1153 32.6834 68.195 32.5165C68.2747 32.3496 68.3177 32.1658 68.3209 31.9789C68.311 31.6176 68.19 31.2696 67.9762 30.9876C67.7465 30.6559 67.2353 30.1493 66.4426 29.4678C64.9377 28.1728 63.9658 27.1724 63.5269 26.4665C63.1156 25.8473 62.8871 25.1129 62.8704 24.3564C62.8674 23.8648 62.9634 23.3781 63.1521 22.9288C63.3408 22.4795 63.6178 22.0778 63.9646 21.7505C64.6939 21.0239 65.6649 20.631 66.6666 20.6572C67.3513 20.6566 68.0261 20.8297 68.6345 21.1619C69.2514 21.4936 69.9234 22.1071 70.6506 23.0024Z" fill="white"/>
<path d="M73.2133 21.0161H75.8222V35.6179H73.2133V21.0161Z" fill="white"/>
<path d="M78.7877 21.0161H81.9015C83.9084 21.0161 85.4018 21.2791 86.3818 21.8052C87.3617 22.3312 88.1658 23.1864 88.7942 24.3709C89.4261 25.5554 89.742 26.9385 89.742 28.5202C89.7531 29.5789 89.5735 30.6302 89.213 31.618C88.8952 32.505 88.3956 33.3066 87.75 33.9651C87.1795 34.5549 86.4877 34.9971 85.7287 35.2571C85.0038 35.5 83.747 35.6215 81.9583 35.6215H78.7877V21.0161ZM81.3966 23.6967V32.9064H82.6166C83.8228 32.9064 84.6844 32.7624 85.2307 32.469C85.8085 32.1392 86.2734 31.6253 86.5593 31.0003C86.9267 30.2075 87.1042 29.3315 87.0762 28.4491C87.0762 26.899 86.6661 25.6969 85.8459 24.8429C85.1072 24.0739 83.9216 23.6894 82.2892 23.6894L81.3966 23.6967Z" fill="white"/>
<path d="M92.2476 21.0161H99.7848V23.7368H94.8565V26.3754H99.7848V29.0468H94.8565V32.8863H99.7848V35.6197H92.2476V21.0161Z" fill="white"/>
</svg>
