<svg width="1073" height="1392" viewBox="0 0 1073 1392" class="psi-brown" fill="none" xmlns="http://www.w3.org/2000/svg">
<path d="M912.277 360.493C948.577 347.85 987.116 346.895 1024.85 343.324C1025.97 354.14 1027.48 364.936 1028.3 375.815C1012.4 377.579 996.52 379.469 980.676 381.628C968.897 383.226 959.355 392.984 955.154 404.465C949.009 420.742 949.264 438.721 950.992 455.911C954.31 487.758 958.845 519.73 956.98 551.889C955.017 599.204 941.274 645.314 921.426 687.438C903.128 726.531 879.079 762.302 852.163 795.229C811.779 844.724 765.211 887.969 718.545 930.675C698.696 948.488 678.18 965.657 660.806 986.314C636.913 1014.05 621.718 1049.24 614.866 1085.97C611.426 1103.61 609.65 1121.56 609.565 1139.57C608.584 1167.56 605.639 1195.44 605.639 1223.49C605.36 1242.72 606.016 1261.94 607.602 1281.1C608.603 1291.48 609.153 1302.11 612.589 1312.01C619.087 1331.8 632.987 1349.8 651.755 1357.48C681.027 1366.68 711.85 1366.89 742.064 1367.26C742.182 1375.38 742.064 1383.51 742.064 1391.65C606.326 1391.75 470.614 1391.75 334.928 1391.65C334.614 1383.51 334.751 1375.31 334.81 1367.15C359.095 1367.15 383.44 1366.35 407.45 1361.96C417.541 1359.89 428.025 1357.81 436.604 1351.4C451.8 1339.94 462.126 1322.33 467.25 1303.48C471.825 1287.76 471.177 1271.11 471.864 1254.88C472.08 1223.74 472.276 1192.78 472.61 1161.72C472.61 1129.38 471.059 1096.66 462.794 1065.35C458.043 1048.16 448.266 1033.15 437.546 1019.55C420.564 998.231 400.461 980.107 382.085 960.155C352.087 927.934 317.573 900.924 285.67 870.883C272.674 858.821 260.541 845.803 248.369 832.849C211.283 792.385 181.403 743.784 165.422 689.784C156.509 660.552 153.171 629.722 152.975 599.079C152.661 576.242 154.192 553.156 149.736 530.568C147.498 520.457 144.474 510.139 138.27 501.917C132.557 494.423 123.939 488.9 114.712 488.817C98.6326 488.589 82.5145 488.817 66.4355 488.817C66.4355 477.959 66.4355 467.122 66.4355 456.264C100.616 455.371 135.031 452.402 168.995 457.987C183.892 460.272 198.424 464.7 212.186 471.15C213.894 471.814 216.113 473.371 214.974 475.634C212.084 481.945 209.859 488.573 208.338 495.398C202.92 520.312 201.703 546.014 202.135 571.571C203.312 619.321 211.951 667.404 230.896 711.064C239.496 731.036 250.568 749.711 263.819 766.6C290.869 797.18 321.906 823.521 355.994 844.828C412.024 878.045 463.108 921.187 504.277 973.546C504.277 860.052 504.277 746.621 504.277 633.252C503.982 620.068 504.277 606.262 499.035 594.076C495.58 585.937 489.769 578.567 481.621 575.557C466.642 569.495 450.307 568.893 434.405 569.017C434.405 561.003 434.405 553.031 434.405 545.038C506.888 545.038 579.345 545.038 651.775 545.038C651.775 553.052 651.775 561.052 651.775 569.038C635.637 568.913 618.91 569.515 603.754 575.91C590.581 581.577 584.357 596.982 582.865 611.017C581.236 628.435 582.119 645.895 581.884 663.314C581.884 752.254 581.884 841.208 581.884 930.176C619.167 905.847 654.903 878.959 688.861 849.686C717.995 824.772 745.147 797.347 772.691 770.42C800.824 743.804 828.054 715.715 850.474 683.41C865.545 664.732 877.899 643.782 887.128 621.252C904.503 577.446 909.293 529.571 911.747 482.568C913.769 441.876 913.318 401.123 912.277 360.493Z" fill="#DDD6CD"/>
<path d="M257.263 253.159C257.263 253.159 209.203 247.615 198.562 202.605C187.921 157.595 202.901 114.392 202.901 114.392C202.901 114.392 306.599 161.976 257.263 253.159Z" fill="#DDD6CD"/>
<path d="M356.348 447.357C356.348 447.357 308.052 450.035 290.756 407.475C273.46 364.915 281.489 319.781 281.489 319.781C281.489 319.781 391.038 348.991 356.348 447.357Z" fill="#DDD6CD"/>
<path d="M682.676 327.068C682.676 327.068 641.939 280.646 666.499 229.491C691.059 178.335 738.216 150.599 738.216 150.599C738.216 150.599 798.763 284.03 682.676 327.068Z" fill="#DDD6CD"/>
<path d="M473.671 300.411C473.671 300.411 426.985 278.259 430.224 229.325C433.463 180.391 461.636 142.129 461.636 142.129C461.636 142.129 551.376 225.63 473.671 300.411Z" fill="#DDD6CD"/>
<path d="M608.977 210.972C608.977 210.972 551.336 193.927 546.919 136.71C542.502 79.4922 569.005 29.7903 569.005 29.7903C569.005 29.7903 686.623 110.115 608.977 210.972Z" fill="#DDD6CD"/>
<path d="M862.961 319.656C862.961 319.656 908.312 337.407 936.818 302.258C965.324 267.11 970.193 221.29 970.193 221.29C970.193 221.29 857.425 214.834 862.961 319.656Z" fill="#DDD6CD"/>
<path d="M973.629 490.333C973.629 490.333 1007.71 507.461 1032.15 482.236C1056.6 457.011 1063.56 421.842 1063.56 421.842C1063.56 421.842 976.22 408.514 973.629 490.333Z" fill="#DDD6CD"/>
<path d="M796.113 196.834C796.113 196.834 832.08 209.29 853.44 180.889C874.8 152.488 877.45 116.53 877.45 116.53C877.45 116.53 788.829 114.807 796.113 196.834Z" fill="#DDD6CD"/>
<path d="M601.261 505.509C601.261 505.509 521.828 480.492 517.391 402.327C512.955 324.161 550.865 257.29 550.865 257.29C550.865 257.29 711.693 370.521 601.261 505.509Z" fill="#DDD6CD"/>
<path d="M339.09 772.517C339.09 772.517 268.413 771.5 246.995 707.452C225.576 643.404 241.635 578.297 241.635 578.297C241.635 578.297 399.008 632.422 339.09 772.517Z" fill="#DDD6CD"/>
<path d="M699.659 659.245C699.659 659.245 656.978 613.716 680.262 561.024C703.546 508.333 750.291 478.727 750.291 478.727C750.291 478.727 815.745 611.619 699.659 659.245Z" fill="#DDD6CD"/>
<path d="M481.15 875.679C481.15 875.679 425.08 893.969 392.805 849.25C360.529 804.531 357.466 748.87 357.466 748.87C357.466 748.87 494.579 749.078 481.15 875.679Z" fill="#DDD6CD"/>
<path d="M298.235 939.934C298.235 939.934 260.404 985.36 211.97 965.533C163.537 945.706 134.207 901.173 134.207 901.173C134.207 901.173 248.369 827.389 298.235 939.934Z" fill="#DDD6CD"/>
<path d="M197.698 824.669C197.698 824.669 161.496 871.485 112.454 853.734C63.4122 835.983 32.4126 792.261 32.4126 792.261C32.4126 792.261 144.023 714.095 197.698 824.669Z" fill="#DDD6CD"/>
<path d="M207.141 418.292C207.141 418.292 158.787 418.915 143.042 375.628C127.296 332.341 137.152 287.435 137.152 287.435C137.152 287.435 245.699 321.4 207.141 418.292Z" fill="#DDD6CD"/>
<path d="M108.076 600.096C108.076 600.096 70.0484 622.435 40.1679 595.259C10.2874 568.083 0 528.097 0 528.097C0 528.097 99.5361 506.069 108.076 600.096Z" fill="#DDD6CD"/>
<path d="M109.863 430.063C109.863 430.063 75.958 437.662 59.2705 409.551C42.583 381.441 43.5646 348.472 43.5646 348.472C43.5646 348.472 124.195 356.382 109.863 430.063Z" fill="#DDD6CD"/>
<path d="M270.063 474.866C270.063 474.866 268.63 520.914 291.992 560.173C294.571 564.5 297.644 568.474 301.141 572.007C304.473 573.693 307.415 576.131 309.76 579.149C333.613 595.301 362.767 588.886 362.767 588.886C382.714 485.952 270.063 474.866 270.063 474.866Z" fill="#DDD6CD"/>
<path d="M815.529 526.229C815.529 526.229 782.567 488.713 802.454 447.337C822.342 405.96 860.389 383.6 860.389 383.6C860.389 383.6 909.274 491.475 815.529 526.229Z" fill="#DDD6CD"/>
<path d="M916.499 771.085C916.499 771.085 918.638 725.41 956.019 712.954C993.399 700.497 1030.74 712.289 1030.74 712.289C1030.74 712.289 996.049 812.794 916.499 771.085Z" fill="#DDD6CD"/>
<path d="M388.486 261.193C388.486 261.193 326.035 257.041 309.956 199.449C293.877 141.858 310.643 85.2637 310.643 85.2637C310.643 85.2637 447.206 140.467 388.486 261.193Z" fill="#DDD6CD"/>
<path d="M425.394 490.582C425.394 490.582 381.222 469.593 384.265 423.316C387.308 377.04 414.066 340.708 414.066 340.708C414.066 340.708 498.937 419.745 425.394 490.582Z" fill="#DDD6CD"/>
<path d="M137.113 722.317C137.113 722.317 96.3951 747.625 63.2948 718.954C30.1947 690.283 17.9834 647.224 17.9834 647.224C17.9834 647.224 125.431 620.546 137.113 722.317Z" fill="#DDD6CD"/>
<path d="M753.196 703.59C753.196 703.59 737.058 652.456 772.691 622.622C808.323 592.788 853.556 589.259 853.556 589.259C853.556 589.259 856.423 714.801 753.196 703.59Z" fill="#DDD6CD"/>
<path d="M703.644 457.364C703.644 457.364 673.41 401.309 708.572 357.4C743.734 313.49 796.113 298.106 796.113 298.106C796.113 298.106 827.21 444.7 703.644 457.364Z" fill="#DDD6CD"/>
<path d="M976.73 684.926C976.73 684.926 946.477 628.871 981.638 584.92C1016.8 540.969 1069 525.875 1069 525.875C1069 525.875 1100.22 672.282 976.73 684.926Z" fill="#DDD6CD"/>
<path d="M441.277 717.771C441.277 717.771 399.068 707.784 394.159 667.28C389.251 626.775 406.724 590.567 406.724 590.567C406.724 590.567 494.147 643.342 441.277 717.771Z" fill="#DDD6CD"/>
<path d="M616.025 840.198C616.025 840.198 595.451 800.046 621.306 768.925C647.162 737.805 684.837 727.403 684.837 727.403C684.837 727.403 704.508 832.164 616.025 840.198Z" fill="#DDD6CD"/>
<path d="M691.06 113.935C691.06 113.935 673.155 85.3886 690.451 60.33C707.747 35.2714 735.252 24.7871 735.252 24.7871C735.252 24.7871 756.573 101.603 691.06 113.935Z" fill="#DDD6CD"/>
<path d="M491.359 112.399C491.359 112.399 517.038 82.9594 501.411 50.5929C485.783 18.2264 455.962 0.766357 455.962 0.766357C455.962 0.766357 417.836 85.43 491.359 112.399Z" fill="#DDD6CD"/>
</svg>
