<svg width="818" height="1062" viewBox="0 0 818 1062" fill="none" class="arbol" xmlns="http://www.w3.org/2000/svg">
<g opacity="0.3">
<path d="M695.752 274.528C723.404 264.891 752.794 264.134 781.519 261.427C782.388 269.656 783.564 277.668 784.177 286.221C772.047 287.593 759.95 289.072 747.887 290.66C743.49 291.501 739.378 293.548 735.961 296.597C732.544 299.647 729.942 303.591 728.413 308.038C724.35 320.67 723.262 334.162 725.244 347.341C727.8 371.648 731.225 396.064 729.793 420.587C727.704 456.718 718.475 491.982 702.704 524.096C688.466 553.866 670.725 581.606 649.904 606.654C619.237 644.549 583.458 677.41 548.037 710.054C532.448 723.094 517.743 737.276 504.029 752.497C486.105 773.944 474.005 800.137 469.017 828.288C466.397 841.773 465.044 855.501 464.979 869.269C464.212 890.598 461.963 911.928 462.065 933.312C461.818 948 462.313 962.692 463.548 977.325C463.884 985.328 465.154 993.256 467.33 1000.93C469.679 1008.63 473.559 1015.72 478.707 1021.7C483.856 1027.69 490.154 1032.44 497.18 1035.63C519.516 1042.67 543.181 1042.83 566.08 1043.1C566.08 1049.27 566.08 1055.5 566.08 1061.72C462.593 1061.72 359.141 1061.72 255.723 1061.72C255.468 1055.5 255.723 1049.27 255.723 1043.05C274.23 1043.38 292.731 1042.06 311.027 1039.09C318.896 1038.08 326.473 1035.31 333.261 1030.97C344.707 1021.92 352.937 1009.05 356.62 994.432C359.276 982.261 360.461 969.782 360.147 957.294C360.147 933.582 360.334 909.889 360.709 886.213C361.389 861.423 358.861 836.652 353.195 812.588C349.132 799.653 342.589 787.747 333.977 777.616C321.045 761.375 305.712 747.462 291.707 732.304C268.808 707.672 242.536 687.046 218.207 664.146C208.291 654.889 199.039 644.982 189.788 635.075C160.975 604.387 139.325 566.997 126.562 525.882C120.085 503.43 116.879 480.064 117.055 456.588C116.799 439.21 117.975 421.562 114.601 404.346C113.212 396.54 110.229 389.149 105.861 382.692C103.719 379.75 101.003 377.332 97.8976 375.604C94.7926 373.876 91.372 372.877 87.8694 372.677C75.6023 372.677 63.2843 372.677 51.0684 372.677C51.0684 364.394 51.0684 356.111 51.0684 347.828C77.1358 347.179 103.357 344.905 129.271 349.182C140.641 350.907 151.734 354.277 162.238 359.197C163.567 359.684 165.254 360.929 164.385 362.607C162.175 367.434 160.462 372.497 159.274 377.711C155.462 396.815 153.883 416.342 154.572 435.854C155.007 472.572 162.466 508.815 176.499 542.394C183.036 557.649 191.477 571.906 201.595 584.783C222.212 608.069 245.86 628.121 271.824 644.332C314.85 669.513 353.167 702.813 384.885 742.59V482.736C385.427 472.572 384.054 462.395 380.847 452.798C379.648 449.623 377.858 446.736 375.584 444.309C373.31 441.881 370.598 439.963 367.609 438.669C356.073 434.693 343.944 433.004 331.83 433.688C331.83 427.571 331.83 421.508 331.83 415.39H497.486V433.688C485.072 432.979 472.645 434.817 460.89 439.102C450.667 443.433 446.118 455.343 444.943 466.17C443.716 479.488 444.38 492.805 444.227 506.123V709.513C472.734 690.959 500.053 670.433 526.007 648.068C548.19 629.012 568.891 608.115 589.898 587.544C611.788 567.646 631.66 545.383 649.189 521.118C660.688 506.855 670.112 490.853 677.147 473.641C690.386 440.239 694.015 403.643 695.906 367.805C696.877 336.676 696.519 305.548 695.752 274.528Z" fill="#AC5C6D"/>
<path d="M508.834 1003.8V977.433H519.414C521.362 977.357 523.309 977.594 525.19 978.137C526.411 978.6 527.442 979.5 528.103 980.681C528.833 981.932 529.205 983.379 529.177 984.849C529.256 986.638 528.669 988.388 527.541 989.722C526.175 991.166 524.357 992.033 522.43 992.158C523.432 992.751 524.345 993.499 525.139 994.378C526.219 995.703 527.178 997.135 528.001 998.654L531.017 1003.8H525.037L521.561 998.059C520.771 996.689 519.882 995.386 518.903 994.161C518.482 993.699 517.978 993.331 517.421 993.078C516.588 992.845 515.725 992.754 514.865 992.808H513.843V1003.63L508.834 1003.8ZM513.945 988.585H517.676C519.183 988.669 520.693 988.559 522.174 988.26C522.744 988.061 523.243 987.683 523.605 987.177C523.919 986.563 524.077 985.873 524.065 985.174C524.099 984.4 523.883 983.636 523.452 983.009C522.95 982.449 522.283 982.086 521.561 981.98C521.152 981.98 519.925 981.98 517.881 981.98H513.945V988.585Z" fill="#AB5C6D"/>
<path d="M540.626 991.671C540.626 996.277 539.336 1000.78 536.918 1004.61C534.501 1008.44 531.065 1011.42 527.046 1013.18C523.027 1014.94 518.606 1015.4 514.341 1014.5C510.076 1013.6 506.16 1011.37 503.088 1008.11C500.017 1004.85 497.927 1000.7 497.085 996.179C496.243 991.66 496.685 986.978 498.357 982.725C500.028 978.472 502.853 974.84 506.474 972.289C510.095 969.738 514.349 968.382 518.699 968.392C521.582 968.392 524.438 968.995 527.102 970.165C529.765 971.336 532.185 973.051 534.222 975.214C536.258 977.376 537.872 979.943 538.971 982.767C540.07 985.591 540.633 988.616 540.626 991.671ZM518.699 1011.27C522.368 1011.26 525.952 1010.09 528.998 1007.93C532.043 1005.76 534.413 1002.68 535.808 999.087C537.203 995.492 537.561 991.54 536.835 987.73C536.109 983.92 534.333 980.424 531.731 977.683C529.129 974.942 525.818 973.08 522.217 972.332C518.616 971.585 514.886 971.985 511.5 973.482C508.114 974.979 505.222 977.506 503.192 980.744C501.162 983.981 500.083 987.784 500.093 991.671C500.1 994.251 500.587 996.805 501.525 999.187C502.464 1001.57 503.836 1003.73 505.564 1005.55C507.292 1007.37 509.341 1008.81 511.594 1009.79C513.848 1010.77 516.262 1011.28 518.699 1011.27Z" fill="#AB5C6D"/>
<path d="M196.432 192.565C196.432 192.565 159.784 188.343 151.657 153.966C147.115 131.602 148.261 108.362 154.979 86.6207C154.979 86.6207 234.051 122.946 196.432 192.565Z" fill="#EE3E33"/>
<path d="M271.925 340.845C271.925 340.845 235.072 342.902 221.885 310.42C213.987 289.15 211.57 266.038 214.883 243.454C214.883 243.454 298.401 265.595 271.925 340.845Z" fill="#F79621"/>
<path d="M520.69 248.975C520.69 248.975 489.665 213.57 508.372 174.43C521.193 149.489 540.075 128.63 563.063 114.014C563.063 114.014 609.217 216.115 520.69 248.975Z" fill="#883492"/>
<path d="M361.373 228.674C361.373 228.674 325.594 211.73 328.252 174.538C330.539 150.478 338.831 127.495 352.275 107.95C352.275 107.95 420.613 171.56 361.373 228.674Z" fill="#F1EA37"/>
<path d="M464.518 160.354C464.518 160.354 420.562 147.362 417.239 103.674C415.863 75.3418 421.669 47.136 434.055 21.9821C434.055 21.9821 523.707 83.3726 464.518 160.354Z" fill="#2EAA4A"/>
<path d="M658.133 243.345C658.133 243.345 692.736 256.879 714.357 230.028C727.883 212.215 736.703 190.918 739.913 168.312C739.913 168.312 653.942 163.332 658.133 243.345Z" fill="#F79621"/>
<path d="M742.521 373.868C742.521 373.868 768.487 386.914 787.143 367.696C798.805 354.824 807.041 338.909 811.012 321.572C811.012 321.572 744.464 311.178 742.521 373.868Z" fill="#2EAA4A"/>
<path d="M607.174 149.581C607.174 149.581 634.57 159.109 650.875 137.401C660.978 123.021 667.293 106.057 669.174 88.2449C669.174 88.2449 601.654 86.9456 607.174 149.581Z" fill="#008BC2"/>
<path d="M458.64 385.236C458.64 385.236 398.072 366.126 394.698 306.468C391.325 246.81 420.255 195.705 420.255 195.705C420.255 195.705 542.823 282.161 458.64 385.236Z" fill="#FBCC0A"/>
<path d="M258.79 589.114C258.79 589.114 204.866 588.301 188.612 539.416C172.358 490.531 184.523 440.834 184.523 440.834C184.523 440.834 304.484 482.14 258.79 589.114Z" fill="#EA2170"/>
<path d="M533.674 502.604C533.674 502.604 501.116 467.848 518.852 427.625C531.104 402.046 549.533 380.361 572.264 364.773C572.264 364.773 622.15 466.278 533.674 502.604Z" fill="#EA2170"/>
<path d="M367.097 667.882C367.097 667.882 324.366 681.795 299.73 647.689C284.476 625.123 275.162 598.667 272.743 571.032C272.743 571.032 377.319 571.194 367.097 667.882Z" fill="#FBCC0A"/>
<path d="M227.662 716.929C227.662 716.929 198.783 751.576 161.88 736.472C138.278 725.975 117.754 708.985 102.436 687.263C102.436 687.263 189.634 631.015 227.662 716.929Z" fill="#EF639F"/>
<path d="M150.994 628.904C150.994 628.904 123.393 664.688 86.0295 651.045C62.1117 641.446 41.0446 625.262 25.001 604.163C25.001 604.163 110.104 544.505 150.994 628.904Z" fill="#FBCC0A"/>
<path d="M158.251 318.649C158.251 318.649 121.398 319.136 109.387 286.167C102.274 264.557 100.722 241.331 104.889 218.876C104.889 218.876 187.589 244.644 158.251 318.649Z" fill="#00B6D6"/>
<path d="M82.707 457.454C82.707 457.454 53.7261 474.507 30.9298 453.773C16.599 439.864 6.01536 422.171 0.262207 402.506C0.262207 402.506 76.2157 385.669 82.707 457.454Z" fill="#C72727"/>
<path d="M84.0352 327.635C84.0352 327.635 58.4788 333.428 45.4962 311.99C37.6357 297.847 33.4887 281.736 33.4849 265.325C33.4849 265.325 94.9733 271.388 84.0352 327.635Z" fill="#FBCC0A"/>
<path d="M206.194 361.85C206.203 384.694 211.974 407.122 222.908 426.813C224.868 430.116 227.202 433.152 229.86 435.854C232.412 437.113 234.666 438.963 236.453 441.267C248.684 448.651 262.968 451.275 276.832 448.684C292.064 370.295 206.194 361.85 206.194 361.85Z" fill="#EA2170"/>
<path d="M621.996 400.936C621.996 400.936 596.849 372.298 612.029 340.682C622.401 320.574 637.644 303.756 656.19 291.96C656.19 291.96 693.452 374.517 621.996 400.936Z" fill="#FBCC0A"/>
<path d="M698.971 588.031C698.971 588.031 700.556 553.167 729.077 543.639C747.682 538.147 767.329 537.979 786.016 543.152C786.016 543.152 759.591 619.863 698.971 588.031Z" fill="#FBCC0A"/>
<path d="M296.664 198.683C296.664 198.683 249.027 195.489 236.76 151.584C229.617 122.981 229.793 92.8783 237.271 64.3708C237.271 64.3708 341.234 106.543 296.664 198.683Z" fill="#EA2170"/>
<path d="M324.572 373.868C324.572 373.868 290.888 357.627 293.24 322.492C295.381 299.708 303.214 277.939 315.934 259.424C315.934 259.424 380.642 319.731 324.572 373.868Z" fill="#009D49"/>
<path d="M104.838 550.785C104.838 550.785 73.8123 570.112 48.6137 548.187C32.7173 533.511 20.7922 514.621 14.0615 493.455C14.0615 493.455 95.9441 473.1 104.838 550.785Z" fill="#0058A8"/>
<path d="M574.461 536.277C574.461 536.277 562.143 497.19 589.335 474.399C607.324 460.147 628.629 451.334 650.977 448.901C650.977 448.901 653.175 544.992 574.461 536.277Z" fill="#00B6D6"/>
<path d="M536.893 348.424C536.893 348.424 513.841 305.656 540.675 272.092C558.598 250.988 581.548 235.376 607.122 226.888C607.122 226.888 630.889 338.842 536.893 348.424Z" fill="#5D2613"/>
<path d="M744.82 522.201C744.82 522.201 721.768 479.433 748.551 445.869C766.469 424.771 789.422 409.175 814.998 400.719C814.998 400.719 839.02 512.565 744.82 522.201Z" fill="#0058A8"/>
<path d="M336.685 547.104C336.685 547.104 304.535 539.471 300.906 508.505C299.066 488.425 302.368 468.19 310.464 449.929C310.464 449.929 377.013 490.477 336.685 547.104Z" fill="#00B6D6"/>
<path d="M469.884 640.759C469.884 640.759 454.193 610.118 473.922 586.352C487.115 571.407 503.819 560.44 522.326 554.575C522.326 554.575 537.353 634.642 469.884 640.759Z" fill="#C72727"/>
<path d="M527.08 86.296C527.08 86.296 513.433 64.6415 526.62 45.3689C535.54 33.3066 547.322 23.9662 560.763 18.3008C560.763 18.3008 577.017 76.8762 527.08 86.296Z" fill="#FBCC0A"/>
<path d="M374.866 85.105C374.866 85.105 394.442 62.6384 382.533 37.8982C374.354 22.2382 362.395 9.16038 347.878 0.00279236C347.878 0.00279236 318.795 64.5332 374.866 85.105Z" fill="#008BC2"/>
</g>
</svg>
